<svg xmlns="http://www.w3.org/2000/svg" width="24" height="24" viewBox="0 0 24 24">
  <g id="vuesax_linear_card-tick" data-name="vuesax/linear/card-tick" transform="translate(-300 -508)">
    <g id="card-tick">
      <path id="Vector" d="M0,0H11.5" transform="translate(302 516.5)" fill="none" stroke="#07143b" stroke-linecap="round" stroke-linejoin="round" stroke-width="1.5"/>
      <path id="Vector-2" data-name="Vector" d="M0,0H2" transform="translate(306 524.5)" fill="none" stroke="#07143b" stroke-linecap="round" stroke-linejoin="round" stroke-width="1.5"/>
      <path id="Vector-3" data-name="Vector" d="M0,0H4" transform="translate(310.5 524.5)" fill="none" stroke="#07143b" stroke-linecap="round" stroke-linejoin="round" stroke-width="1.5"/>
      <path id="Vector-4" data-name="Vector" d="M20,7.53v5.08c0,3.51-.89,4.39-4.44,4.39H4.44C.89,17,0,16.12,0,12.61V4.39C0,.88.89,0,4.44,0H11.5" transform="translate(302 511.5)" fill="none" stroke="#07143b" stroke-linecap="round" stroke-linejoin="round" stroke-width="1.5"/>
      <path id="Vector-5" data-name="Vector" d="M0,2.5,1.5,4l4-4" transform="translate(316.5 511.5)" fill="none" stroke="#3bb77d" stroke-linecap="round" stroke-linejoin="round" stroke-width="1.5"/>
      <path id="Vector-6" data-name="Vector" d="M0,0H24V24H0Z" transform="translate(300 508)" fill="none" opacity="0"/>
    </g>
  </g>
</svg>
