<svg viewBox="0 0 60 63" fill="none" xmlns="http://www.w3.org/2000/svg"><circle cx="30" cy="33" r="30" fill="#fff"/><circle cx="30" cy="33" r="30" fill="#EA6A12" fill-opacity=".32"/><path d="M43.328 48.968c.416 1.056.896 1.824 1.44 2.304.544.48 1.072.736 1.584.768V53c-1.92-.096-4.352-.144-7.296-.144-3.264 0-5.696.048-7.296.144v-.96c1.216-.064 2.08-.208 2.592-.432.512-.256.768-.688.768-1.296 0-.576-.192-1.344-.576-2.304l-2.88-7.872H21.2l-1.248 3.312c-.896 2.304-1.344 4.08-1.344 5.328 0 1.184.352 2.016 1.056 2.496.736.448 1.808.704 3.216.768V53a136 136 0 00-5.952-.144c-1.472 0-2.688.048-3.648.144v-.96c1.568-.288 2.944-1.968 4.128-5.04l10.944-28.08c.352.032.912.048 1.68.048.768 0 1.312-.016 1.632-.048l11.664 30.048zm-12-9.792l-4.752-12.96-4.992 12.96h9.744z" fill="#222"/><path fill-rule="evenodd" clip-rule="evenodd" d="M42.93 2.709c4.717-1.887 10.024.4 11.855 5.097 1.832 4.71-.509 10.055-5.217 11.942-4.718 1.888-10.444-.261-12.374-5.344-1.948-5.083 1.018-9.808 5.735-11.695z" fill="#B9592C"/><path fill-rule="evenodd" clip-rule="evenodd" d="M42.625 1.703c4.798-1.914 10.194.4 12.062 5.193 1.867 4.78-.519 10.221-5.316 12.15-4.798 1.915-10.194-.4-12.062-5.193-1.858-4.794.519-10.235 5.316-12.15z" fill="#FEBD30"/><path fill-rule="evenodd" clip-rule="evenodd" d="M42.832 2.24c4.503-1.804 9.568.386 11.31 4.877 1.752 4.49-.482 9.587-4.985 11.392-4.503 1.804-9.568-.386-11.31-4.877-1.743-4.49.482-9.587 4.985-11.392z" fill="#E47B06"/><path fill-rule="evenodd" clip-rule="evenodd" d="M43.154 2.489c4.27-1.708 8.907.537 10.57 4.794 1.661 4.256-.456 9.091-4.727 10.8-4.262 1.707-9.068-.36-10.73-4.615-1.653-4.257.625-9.271 4.887-10.98z" fill="#FEBD30"/><path fill-rule="evenodd" clip-rule="evenodd" d="M38.803 11.607c.313 0 .572.248.572.552 0 .303-.26.55-.572.55v-.275c.16 0 .295-.124.295-.275 0-.152-.134-.276-.295-.276v-.276zm0 1.103a.565.565 0 01-.572-.551c0-.304.26-.552.572-.552v.276c-.161 0-.295.124-.295.276 0 .151.134.275.295.275v.276z" fill="#4C3A68"/><path fill-rule="evenodd" clip-rule="evenodd" d="M38.803 11.483c.313 0 .572.248.572.552 0 .303-.26.55-.572.55v-.261c.17 0 .304-.124.304-.29 0-.165-.134-.289-.304-.289v-.261zm0 1.089a.565.565 0 01-.572-.551c0-.303.26-.551.572-.551v.261c-.17 0-.304.124-.304.29 0 .165.134.29.304.29v.261z" fill="#634C86"/><path fill-rule="evenodd" clip-rule="evenodd" d="M45.11 16.236c.089-.124.25-.895.794-.895 1.073.014 1.385.909 1.448 1.598.053.606-.536 1.308-1.108 1.405-.643.11-1.555-.317-1.733-1.033-.179-.703.402-.785.598-1.075z" fill="#C40202"/><path fill-rule="evenodd" clip-rule="evenodd" d="M45.11 16.015c.089-.123.25-.895.794-.895 1.073.014 1.385.91 1.448 1.598.053.606-.536 1.309-1.108 1.405-.643.11-1.555-.317-1.733-1.033-.179-.703.402-.785.598-1.075z" fill="url(#paint0_linear)"/><path fill-rule="evenodd" clip-rule="evenodd" d="M45.19 16.07c.08-.123.232-.826.723-.812.974.014 1.26.826 1.323 1.46.044.551-.492 1.199-1.01 1.281-.59.097-1.412-.29-1.581-.936-.17-.648.366-.717.545-.992z" fill="#F07464"/><path fill-rule="evenodd" clip-rule="evenodd" d="M45.682 16.14c.072-.138.179-.29.34-.303.545-.028.67.44.679.812.009.331-.322.744-.617.813-.33.083-.83-.055-.893-.44a.514.514 0 01.17-.455 2.665 2.665 0 00-.402-.413.542.542 0 00.151-.152c.018-.028.045-.11.09-.193.16.124.303.248.482.33z" fill="#FFB596"/><path fill-rule="evenodd" clip-rule="evenodd" d="M45.735 16.07c-.152-.591.223-.867.822-.344.41.359.438.717.34 1.185-.063.29-.412 0-.34-.206.232-.634-.572-1.226-.563-.524 0 .11-.214.083-.259-.11zm-.437.62c-.563.124-.634.606.063.937.491.234.795.11 1.143-.193.224-.193-.178-.4-.33-.234-.438.496-1.287-.014-.688-.303.107-.055-.01-.248-.188-.207z" fill="#E52614"/><path fill-rule="evenodd" clip-rule="evenodd" d="M51.667 9.445c.09-.124.25-.895.795-.895 1.072.014 1.385.909 1.447 1.598.054.606-.536 1.308-1.107 1.405-.644.11-1.555-.317-1.734-1.033-.178-.717.402-.786.599-1.075z" fill="#C40202"/><path fill-rule="evenodd" clip-rule="evenodd" d="M51.667 9.224c.09-.123.25-.895.795-.895 1.072.014 1.385.91 1.447 1.598.054.606-.536 1.309-1.107 1.405-.644.11-1.555-.317-1.734-1.033-.178-.703.402-.785.599-1.075z" fill="url(#paint1_linear)"/><path fill-rule="evenodd" clip-rule="evenodd" d="M51.748 9.28c.08-.125.233-.827.724-.813.974.013 1.268.826 1.322 1.46.045.55-.491 1.198-1.01 1.28-.59.097-1.411-.289-1.58-.936-.17-.647.365-.716.544-.992z" fill="#F07464"/><path fill-rule="evenodd" clip-rule="evenodd" d="M52.24 9.349c.071-.138.178-.29.34-.303.544-.028.67.44.678.812.01.33-.321.744-.616.813-.33.083-.831-.055-.894-.44a.514.514 0 01.17-.455 2.671 2.671 0 00-.402-.414.539.539 0 00.152-.151c.018-.028.045-.11.09-.193.17.124.303.248.482.33z" fill="#FFB596"/><path fill-rule="evenodd" clip-rule="evenodd" d="M52.294 9.28c-.152-.593.223-.868.822-.345.41.358.437.716.339 1.185-.063.289-.411 0-.34-.207.233-.634-.571-1.226-.562-.523 0 .11-.206.082-.26-.11zm-.438.62c-.563.124-.635.606.062.936.492.235.795.11 1.144-.192.223-.193-.179-.4-.33-.235-.438.496-1.287-.013-.689-.303.108-.055-.009-.248-.187-.206z" fill="#E52614"/><path fill-rule="evenodd" clip-rule="evenodd" d="M49.175 10.505c.313 0 .572.248.572.551 0 .304-.26.552-.572.552v-.276c.16 0 .295-.124.295-.276 0-.151-.134-.275-.295-.275v-.276zm0 1.103a.565.565 0 01-.572-.552c0-.303.26-.55.572-.55v.275c-.16 0-.295.124-.295.275 0 .152.134.276.295.276v.276z" fill="#4C3A68"/><path fill-rule="evenodd" clip-rule="evenodd" d="M49.175 10.368c.313 0 .572.248.572.55 0 .304-.26.552-.572.552v-.262c.17 0 .304-.124.304-.29 0-.164-.134-.288-.304-.288v-.262zm0 1.102a.565.565 0 01-.572-.551c0-.303.26-.551.572-.551v.261c-.17 0-.304.125-.304.29 0 .165.134.29.304.29v.261z" fill="#634C86"/><path fill-rule="evenodd" clip-rule="evenodd" d="M43.028 15.795c.313 0 .572.248.572.551 0 .303-.26.551-.572.551v-.275c.16 0 .295-.124.295-.276 0-.151-.134-.276-.295-.276v-.275zm0 1.102a.565.565 0 01-.572-.55c0-.304.26-.552.572-.552v.275c-.16 0-.295.125-.295.276 0 .152.134.276.295.276v.275z" fill="#4C3A68"/><path fill-rule="evenodd" clip-rule="evenodd" d="M43.028 15.657c.313 0 .572.248.572.551 0 .304-.26.552-.572.552v-.262c.17 0 .304-.124.304-.29 0-.165-.134-.289-.304-.289v-.262zm0 1.102a.565.565 0 01-.572-.55c0-.304.26-.552.572-.552v.262c-.17 0-.304.124-.304.29 0 .165.134.289.304.289v.261z" fill="#634C86"/><path fill-rule="evenodd" clip-rule="evenodd" d="M42.867 11.621c.313 0 .572.248.572.551a.565.565 0 01-.572.551v-.275c.161 0 .295-.124.295-.276 0-.151-.134-.275-.295-.275v-.276zm0 1.102a.565.565 0 01-.572-.55c0-.304.26-.552.572-.552v.276c-.16 0-.295.124-.295.275 0 .152.134.276.295.276v.275z" fill="#4C3A68"/><path fill-rule="evenodd" clip-rule="evenodd" d="M42.867 11.497c.313 0 .572.248.572.551a.565.565 0 01-.572.552v-.276c.17 0 .304-.124.304-.29 0-.165-.134-.289-.304-.289v-.248zm0 1.089a.565.565 0 01-.572-.552c0-.303.26-.55.572-.55v.261c-.17 0-.303.124-.303.29 0 .165.134.289.303.289v.262z" fill="#634C86"/><path fill-rule="evenodd" clip-rule="evenodd" d="M41.08 4.375c.313 0 .572.248.572.552 0 .303-.259.55-.572.55v-.275c.161 0 .295-.124.295-.275 0-.152-.134-.276-.295-.276v-.276zm0 1.103a.565.565 0 01-.572-.551c0-.303.26-.552.572-.552v.276c-.16 0-.295.124-.295.276 0 .151.134.275.295.275v.276z" fill="#4C3A68"/><path fill-rule="evenodd" clip-rule="evenodd" d="M41.08 4.238c.313 0 .572.248.572.55a.565.565 0 01-.572.552v-.262c.17 0 .304-.124.304-.29 0-.164-.134-.288-.304-.288v-.262zm0 1.102a.565.565 0 01-.572-.551c0-.303.26-.551.572-.551V4.5c-.17 0-.304.124-.304.289 0 .165.134.29.304.29v.261z" fill="#634C86"/><path fill-rule="evenodd" clip-rule="evenodd" d="M47.54 3.329c.313 0 .572.248.572.55 0 .304-.26.552-.572.552v-.276c.16 0 .295-.124.295-.275 0-.152-.134-.276-.295-.276V3.33zm0 1.102a.565.565 0 01-.572-.551c0-.303.259-.551.572-.551v.275c-.161 0-.295.124-.295.276 0 .151.134.275.295.275v.276z" fill="#4C3A68"/><path fill-rule="evenodd" clip-rule="evenodd" d="M47.54 3.19c.313 0 .572.249.572.552 0 .303-.26.551-.572.551v-.262c.17 0 .304-.124.304-.289 0-.165-.135-.29-.304-.29v-.261zm0 1.103a.565.565 0 01-.572-.55c0-.304.259-.552.572-.552v.262c-.17 0-.304.124-.304.29 0 .164.134.288.304.288v.262z" fill="#634C86"/><path fill-rule="evenodd" clip-rule="evenodd" d="M43.082 6.47c.313 0 .572.247.572.55 0 .304-.26.552-.572.552v-.276c.16 0 .295-.124.295-.276 0-.151-.134-.275-.295-.275v-.276zm0 1.088a.565.565 0 01-.572-.551c0-.303.259-.551.572-.551v.275c-.161 0-.295.124-.295.276 0 .151.134.275.295.275v.276z" fill="#4C3A68"/><path fill-rule="evenodd" clip-rule="evenodd" d="M43.082 6.332c.313 0 .572.248.572.55 0 .304-.26.552-.572.552v-.262c.17 0 .303-.124.303-.29 0-.165-.133-.289-.303-.289v-.261zm0 1.088a.565.565 0 01-.572-.551c0-.303.259-.551.572-.551v.262c-.17 0-.304.124-.304.289 0 .165.134.29.304.29v.261z" fill="#634C86"/><path fill-rule="evenodd" clip-rule="evenodd" d="M46.298 13.192c.313 0 .572.248.572.551a.565.565 0 01-.572.551v-.275c.161 0 .295-.124.295-.276 0-.152-.134-.276-.295-.276v-.275zm0 1.102a.565.565 0 01-.571-.551c0-.303.259-.551.572-.551v.275c-.161 0-.295.124-.295.276 0 .152.134.276.294.276v.275z" fill="#4C3A68"/><path fill-rule="evenodd" clip-rule="evenodd" d="M46.298 13.054c.313 0 .572.248.572.551a.565.565 0 01-.572.551v-.261c.17 0 .304-.124.304-.29 0-.165-.134-.289-.303-.289v-.262zm0 1.102a.565.565 0 01-.571-.55c0-.304.259-.552.572-.552v.262c-.17 0-.304.124-.304.29 0 .165.134.289.303.289v.261z" fill="#634C86"/><path fill-rule="evenodd" clip-rule="evenodd" d="M49.934 16.002c.313 0 .572.248.572.55a.565.565 0 01-.572.552v-.276c.161 0 .295-.124.295-.275 0-.152-.134-.276-.295-.276v-.276zm0 1.102a.565.565 0 01-.572-.551c0-.303.26-.552.572-.552v.276c-.16 0-.295.124-.295.276 0 .151.134.275.295.275v.276z" fill="#4C3A68"/><path fill-rule="evenodd" clip-rule="evenodd" d="M49.934 15.864c.313 0 .572.248.572.55a.565.565 0 01-.572.552v-.262c.17 0 .304-.124.304-.29 0-.164-.134-.288-.304-.288v-.262zm0 1.102a.565.565 0 01-.572-.551c0-.303.26-.551.572-.551v.262c-.17 0-.304.124-.304.289 0 .165.134.29.304.29v.261z" fill="#634C86"/><path fill-rule="evenodd" clip-rule="evenodd" d="M38.945 11.278c.519 0 .93-.4.93-.896s-.42-.895-.93-.895c-.518 0-.929.4-.929.895-.009.496.411.896.93.896z" fill="#692C2D"/><path fill-rule="evenodd" clip-rule="evenodd" d="M38.945 11.126c.519 0 .93-.4.93-.896s-.42-.895-.93-.895c-.518 0-.929.4-.929.895-.009.496.411.896.93.896z" fill="#6E2E2E"/><path fill-rule="evenodd" clip-rule="evenodd" d="M38.946 11.084c.483 0 .885-.385.885-.84 0-.468-.394-.84-.885-.84-.482 0-.884.386-.884.84 0 .455.393.84.884.84z" fill="#8B3236"/><path d="M38.266 10.052c.035 0 .063-.031.063-.069 0-.038-.028-.069-.063-.069-.034 0-.062.03-.062.069 0 .038.028.069.062.069zm.153.22c.069 0 .125-.05.125-.11 0-.061-.056-.11-.125-.11-.07 0-.125.049-.125.11 0 .06.056.11.125.11zm1.064-.152c.034 0 .062-.03.062-.069 0-.038-.028-.069-.063-.069-.034 0-.062.031-.062.07 0 .037.028.068.063.068zm.159.22c.07 0 .125-.049.125-.11 0-.06-.056-.11-.125-.11s-.125.05-.125.11c0 .061.056.11.125.11zm-1.277.221c.034 0 .062-.03.062-.069 0-.038-.028-.069-.062-.069-.035 0-.063.031-.063.07 0 .037.028.068.063.068zm.768.029c.07 0 .125-.05.125-.111s-.056-.11-.125-.11-.125.049-.125.11c0 .06.056.11.125.11zm-.321-.98c.05 0 .09-.037.09-.083 0-.045-.04-.082-.09-.082-.05 0-.09.037-.09.082 0 .046.04.083.09.083zm.178.193c.069 0 .125-.049.125-.11 0-.06-.056-.11-.125-.11-.07 0-.125.05-.125.11 0 .061.056.11.125.11zm-.25 1.171c.069 0 .125-.05.125-.11 0-.061-.056-.11-.125-.11-.07 0-.125.049-.125.11 0 .06.056.11.125.11zm.679-.344c.034 0 .062-.03.062-.069 0-.038-.028-.069-.063-.069-.034 0-.062.031-.062.07 0 .037.028.068.063.068zm-.553-.593c.034 0 .062-.03.062-.069 0-.038-.028-.069-.062-.069-.035 0-.063.031-.063.07 0 .037.028.068.063.068zm.447-.357c.034 0 .062-.032.062-.07 0-.038-.028-.069-.062-.069-.035 0-.063.031-.063.07 0 .037.028.068.063.068zm-.743.22c.035 0 .063-.03.063-.069 0-.038-.028-.069-.063-.069-.034 0-.062.031-.062.07 0 .037.028.068.062.068zm.073.771c.049 0 .089-.037.089-.082 0-.046-.04-.083-.09-.083-.049 0-.089.037-.089.082 0 .046.04.083.09.083z" fill="#DDCBBA"/><path fill-rule="evenodd" clip-rule="evenodd" d="M41.884 11.015c.518 0 .93-.4.93-.895 0-.496-.42-.895-.93-.895-.518 0-.938.4-.938.895 0 .496.42.895.938.895z" fill="#692C2D"/><path fill-rule="evenodd" clip-rule="evenodd" d="M41.885 10.864c.519 0 .93-.4.93-.896s-.42-.895-.93-.895c-.518.014-.938.413-.938.909 0 .482.42.882.938.882z" fill="#6E2E2E"/><path fill-rule="evenodd" clip-rule="evenodd" d="M41.884 10.822c.483 0 .885-.386.885-.84 0-.468-.394-.84-.885-.84-.482 0-.885.385-.885.84 0 .454.394.84.885.84z" fill="#8B3236"/><path d="M41.205 9.79c.035 0 .063-.031.063-.07 0-.037-.028-.068-.063-.068-.034 0-.062.03-.062.069 0 .038.028.069.062.069zm.161.234c.07 0 .125-.05.125-.11 0-.061-.056-.11-.125-.11s-.125.049-.125.11c0 .06.056.11.125.11zm1.063-.166c.034 0 .062-.03.062-.069 0-.038-.028-.069-.062-.069-.035 0-.063.031-.063.07 0 .037.028.068.063.068zm.151.22c.069 0 .125-.049.125-.11 0-.06-.056-.11-.125-.11-.07 0-.125.05-.125.11 0 .061.056.11.125.11zm-1.276.235c.034 0 .062-.03.062-.069 0-.038-.028-.069-.062-.069-.035 0-.063.031-.063.07 0 .037.028.068.063.068zm.768.014c.07 0 .125-.05.125-.11 0-.061-.056-.11-.125-.11s-.125.049-.125.11c0 .06.056.11.125.11zm-.322-.979c.049 0 .089-.037.089-.083 0-.045-.04-.082-.09-.082-.049 0-.089.037-.089.082 0 .046.04.083.09.083zm.179.193c.069 0 .125-.05.125-.11s-.056-.11-.125-.11c-.07 0-.125.05-.125.11s.056.11.125.11zm-.242 1.171c.069 0 .125-.05.125-.11 0-.061-.056-.11-.125-.11-.07 0-.125.049-.125.11 0 .06.056.11.125.11zm.671-.344c.035 0 .063-.031.063-.07 0-.037-.029-.068-.063-.068-.035 0-.063.03-.063.069 0 .038.028.069.063.069zm-.555-.593c.035 0 .063-.03.063-.068 0-.038-.028-.07-.063-.07-.034 0-.062.032-.062.07 0 .038.028.068.062.068zm.447-.358c.035 0 .063-.03.063-.069 0-.038-.028-.069-.063-.069-.034 0-.062.031-.062.07 0 .037.028.068.063.068zm-.742.221c.035 0 .063-.031.063-.07 0-.037-.028-.068-.063-.068-.034 0-.062.03-.062.069 0 .038.028.069.062.069zm.072.771c.05 0 .09-.037.09-.083 0-.045-.04-.082-.09-.082-.049 0-.089.037-.089.082 0 .046.04.083.09.083z" fill="#DDCBBA"/><path d="M44.26 14.403c.514 0 .93-.4.93-.895 0-.494-.416-.895-.93-.895-.512 0-.928.4-.928.895s.416.896.929.896z" fill="#692C2D"/><path d="M44.26 14.266c.514 0 .93-.401.93-.896 0-.494-.416-.895-.93-.895-.512 0-.928.401-.928.896 0 .494.416.895.929.895z" fill="#6E2E2E"/><path d="M44.261 14.21c.489 0 .885-.375.885-.84 0-.463-.396-.84-.885-.84-.488 0-.884.377-.884.84 0 .465.396.84.884.84z" fill="#8B3236"/><path d="M43.59 13.192c.035 0 .063-.03.063-.069 0-.038-.028-.069-.062-.069-.035 0-.063.031-.063.07 0 .037.028.068.063.068zm.152.22c.069 0 .125-.05.125-.11 0-.061-.056-.11-.125-.11-.07 0-.125.049-.125.11 0 .06.056.11.125.11zm1.064-.165c.035 0 .063-.031.063-.07 0-.037-.028-.068-.063-.068-.034 0-.062.03-.062.069 0 .038.028.069.062.069zm.161.233c.069 0 .125-.049.125-.11 0-.06-.056-.11-.125-.11-.07 0-.125.05-.125.11 0 .061.056.11.125.11zm-1.277.221c.034 0 .062-.03.062-.069 0-.038-.028-.069-.063-.069-.034 0-.062.031-.062.07 0 .037.028.068.063.068zm.768.029c.07 0 .125-.05.125-.111 0-.06-.056-.11-.125-.11s-.125.05-.125.11.056.11.125.11zm-.323-.98c.05 0 .09-.037.09-.082 0-.046-.04-.083-.09-.083-.05 0-.09.037-.09.083 0 .045.04.082.09.082zm.18.194c.069 0 .125-.05.125-.11 0-.061-.056-.11-.125-.11-.07 0-.125.049-.125.11 0 .06.056.11.125.11zm-.251 1.156c.07 0 .125-.049.125-.11 0-.06-.056-.11-.125-.11s-.125.05-.125.11c0 .061.056.11.125.11zm.68-.33c.035 0 .063-.03.063-.069 0-.038-.028-.069-.063-.069-.034 0-.062.031-.062.07 0 .037.028.068.062.068zm-.555-.592c.035 0 .063-.031.063-.07 0-.037-.028-.068-.063-.068s-.063.03-.063.069c0 .038.029.069.063.069zm.438-.358c.035 0 .063-.031.063-.07 0-.037-.028-.068-.063-.068-.034 0-.062.03-.062.069 0 .038.028.068.063.068zm-.733.22c.035 0 .063-.03.063-.069 0-.038-.028-.069-.063-.069s-.063.031-.063.07c0 .037.028.068.063.068zm.072.771c.05 0 .09-.037.09-.082 0-.046-.04-.083-.09-.083-.049 0-.089.037-.089.083 0 .045.04.082.09.082z" fill="#DDCBBA"/><path fill-rule="evenodd" clip-rule="evenodd" d="M41.446 16.745c.518 0 .93-.4.93-.895 0-.496-.42-.895-.93-.895-.518 0-.93.4-.93.895-.008.496.412.895.93.895z" fill="#692C2D"/><path fill-rule="evenodd" clip-rule="evenodd" d="M41.449 16.608c.518 0 .929-.4.929-.896s-.42-.895-.93-.895c-.517 0-.928.4-.928.895-.01.482.41.896.929.896z" fill="#6E2E2E"/><path fill-rule="evenodd" clip-rule="evenodd" d="M41.447 16.553c.482 0 .884-.386.884-.84 0-.469-.393-.84-.885-.84-.482 0-.884.385-.884.84 0 .454.393.84.885.84z" fill="#8B3236"/><path d="M40.767 15.533c.034 0 .062-.03.062-.069 0-.038-.028-.069-.062-.069-.035 0-.063.031-.063.07 0 .037.028.068.063.068zm.153.221c.069 0 .125-.05.125-.11 0-.061-.056-.11-.126-.11-.069 0-.125.049-.125.11 0 .06.056.11.126.11zm1.063-.166c.035 0 .063-.03.063-.068 0-.038-.029-.07-.063-.07-.035 0-.063.032-.063.07 0 .038.028.069.063.069zm.16.221c.069 0 .125-.05.125-.11 0-.061-.056-.11-.125-.11-.07 0-.125.049-.125.11 0 .06.056.11.125.11zm-1.278.234c.034 0 .062-.03.062-.069 0-.038-.028-.069-.062-.069-.035 0-.063.031-.063.07 0 .037.028.068.063.068zm.768.014c.07 0 .125-.05.125-.11 0-.061-.056-.11-.125-.11s-.125.049-.125.11c0 .06.056.11.125.11zm-.32-.964c.049 0 .089-.037.089-.083 0-.046-.04-.083-.09-.083-.049 0-.089.037-.089.083 0 .046.04.083.09.083zm.177.178c.07 0 .125-.05.125-.11s-.056-.11-.125-.11-.125.05-.125.11.056.11.125.11zm-.25 1.171c.07 0 .125-.05.125-.11 0-.061-.056-.11-.125-.11s-.125.049-.125.11c0 .06.056.11.125.11zm.679-.344c.035 0 .063-.03.063-.069 0-.038-.028-.069-.063-.069-.034 0-.063.031-.063.07 0 .037.029.068.063.068zm-.553-.592c.035 0 .063-.03.063-.069 0-.038-.028-.069-.063-.069-.034 0-.062.031-.062.07 0 .037.028.068.062.068zm.447-.358c.035 0 .063-.031.063-.07 0-.037-.028-.068-.063-.068s-.063.03-.063.069c0 .038.029.069.063.069zm-.742.22c.035 0 .063-.031.063-.07 0-.037-.028-.068-.063-.068-.034 0-.062.03-.062.069 0 .038.028.069.062.069zm.071.785c.049 0 .089-.037.089-.082 0-.046-.04-.083-.09-.083-.049 0-.089.037-.089.082 0 .046.04.083.09.083z" fill="#DDCBBA"/><path fill-rule="evenodd" clip-rule="evenodd" d="M41.42 12.916c-.09-.124-.25-.895-.796-.895-1.072.014-1.385.91-1.447 1.598-.054.606.536 1.309 1.108 1.405.643.11 1.554-.317 1.733-1.033.178-.703-.402-.772-.599-1.075z" fill="#C40202"/><path fill-rule="evenodd" clip-rule="evenodd" d="M41.422 12.696c-.09-.124-.25-.896-.795-.896-1.072.014-1.385.91-1.447 1.598-.054.606.536 1.309 1.108 1.405.643.11 1.554-.317 1.733-1.033.178-.702-.402-.771-.599-1.074z" fill="url(#paint2_linear)"/><path fill-rule="evenodd" clip-rule="evenodd" d="M41.34 12.765c-.08-.124-.232-.827-.724-.813-.973.014-1.268.826-1.322 1.46-.045.551.492 1.198 1.01 1.281.59.097 1.411-.29 1.581-.937.17-.66-.366-.716-.545-.991z" fill="#F07464"/><path fill-rule="evenodd" clip-rule="evenodd" d="M40.847 12.834c-.071-.138-.178-.29-.34-.303-.544-.028-.67.44-.678.812-.01.33.321.744.616.813.33.083.831-.055.894-.44a.514.514 0 00-.17-.455c.107-.138.25-.29.402-.414a.538.538 0 01-.152-.151c-.018-.028-.045-.11-.09-.193-.169.124-.303.248-.482.33z" fill="#FFB596"/><path fill-rule="evenodd" clip-rule="evenodd" d="M40.794 12.765c.152-.593-.223-.868-.822-.345-.41.358-.438.717-.34 1.185.063.29.412 0 .34-.207-.232-.633.572-1.226.563-.523 0 .11.206.083.26-.11zm.437.619c.563.124.634.606-.062.937-.492.234-.795.11-1.144-.193-.223-.193.179-.4.33-.234.438.496 1.287-.014.689-.303-.108-.055.009-.248.187-.207z" fill="#E52614"/><path fill-rule="evenodd" clip-rule="evenodd" d="M42.563 6.097c.518 0 .93-.4.93-.895 0-.496-.42-.895-.93-.895-.518 0-.93.4-.93.895-.008.496.412.895.93.895z" fill="#692C2D"/><path fill-rule="evenodd" clip-rule="evenodd" d="M42.563 5.946c.518 0 .93-.4.93-.895 0-.496-.42-.896-.93-.896-.518 0-.93.4-.93.896-.008.496.412.895.93.895z" fill="#6E2E2E"/><path fill-rule="evenodd" clip-rule="evenodd" d="M42.564 5.905c.482 0 .884-.386.884-.84 0-.469-.393-.84-.884-.84-.483 0-.885.385-.885.84 0 .454.402.84.885.84z" fill="#8B3236"/><path d="M41.885 4.885c.035 0 .063-.03.063-.069 0-.038-.028-.068-.063-.068-.034 0-.062.03-.062.068 0 .038.028.07.062.07zm.162.221c.069 0 .125-.05.125-.11s-.056-.11-.125-.11c-.07 0-.126.05-.126.11s.056.11.126.11zm1.063-.166c.034 0 .062-.03.062-.068 0-.038-.028-.07-.063-.07-.034 0-.062.032-.062.07 0 .038.028.069.062.069zm.15.22c.07 0 .126-.048.126-.11 0-.06-.056-.11-.126-.11-.069 0-.125.05-.125.11 0 .062.056.11.125.11zm-1.276.235c.035 0 .063-.03.063-.069 0-.038-.028-.069-.063-.069s-.063.031-.063.07c0 .037.028.068.063.068zm.766.014c.07 0 .126-.05.126-.11 0-.061-.056-.11-.125-.11-.07 0-.125.049-.125.11 0 .06.056.11.125.11zm-.32-.964c.05 0 .09-.037.09-.083 0-.046-.04-.083-.09-.083-.05 0-.09.037-.09.083 0 .046.04.083.09.083zm.179.179c.07 0 .125-.05.125-.11 0-.061-.056-.11-.125-.11-.07 0-.125.049-.125.11 0 .06.056.11.125.11zm-.242 1.171c.07 0 .125-.05.125-.11 0-.061-.056-.11-.125-.11s-.125.049-.125.11c0 .06.056.11.125.11zm.669-.345c.035 0 .063-.03.063-.069 0-.038-.028-.069-.063-.069-.034 0-.062.031-.062.07 0 .037.028.068.062.068zm-.553-.592c.035 0 .063-.03.063-.069 0-.038-.028-.069-.063-.069-.034 0-.062.031-.062.07 0 .037.028.068.063.068zm.447-.358c.035 0 .063-.031.063-.07 0-.037-.028-.068-.063-.068-.034 0-.062.03-.062.069 0 .038.028.069.062.069zm-.742.22c.035 0 .063-.03.063-.069 0-.038-.028-.068-.063-.068-.034 0-.062.03-.062.068 0 .038.028.07.063.07zm.072.772c.05 0 .09-.037.09-.083 0-.046-.04-.083-.09-.083-.05 0-.09.037-.09.083 0 .046.04.083.09.083z" fill="#DDCBBA"/><path fill-rule="evenodd" clip-rule="evenodd" d="M46.69 6.883c.52 0 .93-.4.93-.896s-.42-.895-.93-.895c-.517 0-.928.4-.928.895 0 .496.42.896.929.896z" fill="#692C2D"/><path fill-rule="evenodd" clip-rule="evenodd" d="M46.69 6.745c.52 0 .93-.4.93-.896 0-.495-.42-.895-.93-.895-.517 0-.928.4-.928.895 0 .496.42.896.929.896z" fill="#6E2E2E"/><path fill-rule="evenodd" clip-rule="evenodd" d="M46.692 6.69c.482 0 .884-.386.884-.84 0-.469-.393-.84-.884-.84-.483 0-.885.385-.885.84a.87.87 0 00.885.84z" fill="#8B3236"/><path d="M46.021 5.67c.035 0 .063-.03.063-.068 0-.038-.028-.07-.063-.07s-.063.032-.063.07c0 .038.029.068.063.068zm.152.22c.07 0 .126-.048.126-.11 0-.06-.056-.11-.126-.11-.069 0-.125.05-.125.11 0 .062.056.11.125.11zm1.064-.164c.034 0 .062-.031.062-.07 0-.037-.028-.068-.062-.068-.035 0-.063.03-.063.069 0 .038.028.069.063.069zm.161.234c.069 0 .125-.05.125-.11 0-.061-.056-.11-.125-.11-.07 0-.126.049-.126.11 0 .06.056.11.126.11zm-1.278.22c.034 0 .062-.03.062-.069 0-.038-.028-.069-.062-.069-.035 0-.063.031-.063.07 0 .037.028.068.063.068zm.768.028c.07 0 .125-.05.125-.11s-.056-.11-.125-.11-.125.05-.125.11.056.11.125.11zm-.321-.978c.05 0 .09-.038.09-.083 0-.046-.04-.083-.09-.083-.05 0-.09.037-.09.083 0 .045.04.082.09.082zm.178.193c.069 0 .125-.05.125-.11 0-.061-.056-.11-.125-.11-.07 0-.125.048-.125.11 0 .06.056.11.125.11zm-.25 1.157c.069 0 .125-.05.125-.11 0-.062-.056-.111-.125-.111-.07 0-.125.05-.125.11 0 .061.056.11.125.11zm.669-.33c.035 0 .063-.032.063-.07 0-.038-.028-.069-.063-.069-.034 0-.062.031-.062.07 0 .037.028.068.062.068zm-.544-.594c.034 0 .062-.03.062-.069 0-.038-.028-.068-.063-.068-.034 0-.062.03-.062.068 0 .038.028.07.062.07zm.438-.358c.034 0 .062-.03.062-.068 0-.039-.028-.07-.062-.07-.035 0-.063.031-.063.07 0 .038.028.068.063.068zm-.732.222c.034 0 .062-.032.062-.07 0-.038-.028-.069-.062-.069-.035 0-.063.031-.063.07 0 .037.028.068.063.068zm.071.77c.049 0 .089-.037.089-.082 0-.046-.04-.083-.09-.083-.049 0-.089.037-.089.083 0 .045.04.082.09.082z" fill="#DDCBBA"/><path fill-rule="evenodd" clip-rule="evenodd" d="M49.148 7.227c.518 0 .93-.4.93-.896 0-.495-.42-.895-.93-.895-.518 0-.93.4-.93.895-.008.496.412.896.93.896z" fill="#692C2D"/><path fill-rule="evenodd" clip-rule="evenodd" d="M49.148 7.09c.518 0 .93-.4.93-.896s-.42-.896-.93-.896c-.518 0-.93.4-.93.896-.008.496.412.895.93.895z" fill="#6E2E2E"/><path fill-rule="evenodd" clip-rule="evenodd" d="M49.149 7.034c.482 0 .884-.386.884-.84 0-.469-.393-.84-.884-.84-.483 0-.885.385-.885.84 0 .468.393.84.885.84z" fill="#8B3236"/><path d="M48.468 6.015c.035 0 .063-.031.063-.07 0-.037-.028-.068-.063-.068-.034 0-.062.03-.062.069 0 .038.028.069.062.069zm.153.22c.07 0 .125-.05.125-.11 0-.061-.056-.11-.125-.11s-.125.049-.125.11c0 .06.056.11.125.11zm1.064-.165c.034 0 .062-.03.062-.069 0-.038-.028-.069-.062-.069-.035 0-.063.031-.063.069 0 .038.028.069.063.069zm.16.22c.069 0 .125-.05.125-.11s-.056-.11-.125-.11c-.07 0-.125.05-.125.11s.056.11.125.11zm-1.278.234c.035 0 .063-.03.063-.068 0-.038-.028-.07-.063-.07-.034 0-.062.032-.062.07 0 .038.028.068.062.068z" fill="#DDCBBA"/><path fill-rule="evenodd" clip-rule="evenodd" d="M49.336 6.552c.062 0 .125-.055.125-.11 0-.07-.054-.11-.125-.11-.072 0-.126.055-.126.11s.063.11.126.11z" fill="#DDCBBA"/><path d="M49.015 5.574c.049 0 .089-.037.089-.083 0-.045-.04-.082-.09-.082-.049 0-.089.037-.089.082 0 .046.04.083.09.083z" fill="#DDCBBA"/><path fill-rule="evenodd" clip-rule="evenodd" d="M49.193 5.767c.062 0 .125-.055.125-.11 0-.07-.054-.11-.125-.11-.072 0-.126.054-.126.11 0 .055.054.11.126.11z" fill="#DDCBBA"/><path d="M48.942 6.924c.07 0 .125-.05.125-.11 0-.062-.056-.11-.125-.11-.07 0-.125.048-.125.11 0 .06.056.11.125.11zm.679-.344c.035 0 .063-.031.063-.07 0-.037-.028-.068-.063-.068-.034 0-.062.03-.062.069 0 .038.028.069.062.069zM49.068 6c.035 0 .063-.03.063-.068 0-.038-.029-.07-.063-.07-.035 0-.063.032-.063.07 0 .038.028.069.063.069zm.447-.357c.034 0 .062-.031.062-.07 0-.037-.028-.068-.062-.068-.035 0-.063.03-.063.069 0 .038.028.069.063.069zm-.742.22c.035 0 .063-.03.063-.069 0-.038-.028-.068-.063-.068s-.063.03-.063.068c0 .039.029.07.063.07zm.072.772c.05 0 .09-.037.09-.083 0-.046-.04-.083-.09-.083-.05 0-.09.037-.09.083 0 .046.04.083.09.083z" fill="#DDCBBA"/><path fill-rule="evenodd" clip-rule="evenodd" d="M50.844 9.706c.518 0 .93-.4.93-.895 0-.496-.42-.895-.93-.895-.518 0-.929.399-.929.895-.009.496.411.895.93.895z" fill="#692C2D"/><path fill-rule="evenodd" clip-rule="evenodd" d="M50.845 9.569c.518 0 .929-.4.929-.896s-.42-.895-.93-.895c-.517 0-.928.4-.928.895-.01.496.41.896.929.896z" fill="#6E2E2E"/><path fill-rule="evenodd" clip-rule="evenodd" d="M50.845 9.514c.482 0 .884-.386.884-.84 0-.47-.393-.841-.884-.841-.483 0-.885.386-.885.84 0 .469.402.84.885.84z" fill="#8B3236"/><path d="M50.165 8.494c.035 0 .063-.03.063-.069 0-.038-.028-.069-.063-.069s-.063.031-.063.07c0 .037.029.068.063.068zm.161.221c.069 0 .125-.05.125-.11 0-.062-.056-.11-.125-.11-.07 0-.125.048-.125.11 0 .06.056.11.125.11zm1.064-.165c.034 0 .062-.031.062-.07 0-.038-.028-.068-.063-.068-.034 0-.062.03-.062.069 0 .038.028.068.062.068z" fill="#DDCBBA"/><path fill-rule="evenodd" clip-rule="evenodd" d="M51.542 8.783c.071 0 .125-.055.125-.11 0-.069-.054-.11-.125-.11-.063 0-.126.055-.126.11.01.055.063.11.126.11z" fill="#DDCBBA"/><path d="M50.263 9.004c.035 0 .063-.03.063-.069 0-.038-.028-.069-.063-.069-.034 0-.062.031-.062.07 0 .037.028.068.062.068zm.769.028c.069 0 .125-.05.125-.11 0-.061-.056-.11-.125-.11-.07 0-.125.049-.125.11 0 .06.056.11.125.11zm-.322-.979c.05 0 .09-.037.09-.083 0-.045-.04-.082-.09-.082-.048 0-.088.037-.088.082 0 .046.04.083.089.083zm.179.179c.069 0 .125-.05.125-.11s-.056-.11-.125-.11c-.07 0-.125.05-.125.11s.056.11.125.11z" fill="#DDCBBA"/><path fill-rule="evenodd" clip-rule="evenodd" d="M50.648 9.417c.072 0 .126-.055.126-.11 0-.069-.054-.11-.126-.11-.062 0-.125.055-.125.11s.054.11.125.11z" fill="#DDCBBA"/><path d="M51.317 9.06c.035 0 .063-.032.063-.07 0-.038-.028-.069-.063-.069-.034 0-.062.031-.062.07 0 .037.028.068.062.068zm-.552-.593c.034 0 .062-.031.062-.069 0-.038-.028-.069-.062-.069-.035 0-.063.03-.063.069 0 .038.028.069.063.069zm.447-.359c.034 0 .062-.03.062-.068 0-.038-.028-.07-.063-.07-.034 0-.062.032-.062.07 0 .038.028.068.063.068zm-.742.222c.034 0 .062-.032.062-.07 0-.038-.028-.069-.063-.069-.034 0-.062.031-.062.07 0 .037.028.068.062.068zm.07.784c.05 0 .09-.037.09-.083 0-.045-.04-.082-.09-.082-.05 0-.09.037-.09.082 0 .046.04.083.09.083z" fill="#DDCBBA"/><path fill-rule="evenodd" clip-rule="evenodd" d="M50.872 13.577c.518 0 .929-.4.929-.896 0-.495-.42-.895-.93-.895-.518 0-.928.4-.928.896-.01.495.41.895.929.895z" fill="#692C2D"/><path fill-rule="evenodd" clip-rule="evenodd" d="M50.873 13.44c.518 0 .929-.4.929-.896s-.42-.896-.93-.896c-.517 0-.928.4-.928.896-.01.482.41.895.929.895z" fill="#6E2E2E"/><path fill-rule="evenodd" clip-rule="evenodd" d="M50.872 13.384c.483 0 .885-.386.885-.84 0-.469-.393-.84-.885-.84-.482 0-.884.385-.884.84 0 .454.393.84.884.84z" fill="#8B3236"/><path d="M50.192 12.365c.035 0 .063-.03.063-.069 0-.038-.028-.069-.063-.069-.034 0-.062.031-.062.07 0 .037.028.068.062.068zm.153.22c.07 0 .125-.05.125-.11s-.056-.11-.125-.11-.125.05-.125.11.056.11.125.11zm1.072-.165c.034 0 .062-.03.062-.069 0-.038-.028-.069-.062-.069-.035 0-.063.031-.063.07 0 .037.028.068.063.068zm.152.22c.069 0 .125-.05.125-.11 0-.061-.056-.11-.126-.11-.069 0-.125.049-.125.11 0 .06.056.11.126.11zm-1.278.235c.035 0 .063-.031.063-.07 0-.037-.028-.068-.063-.068-.034 0-.063.03-.063.069 0 .038.029.069.063.069zm.769.013c.068 0 .124-.049.124-.11 0-.06-.056-.11-.125-.11s-.125.05-.125.11c0 .061.056.11.125.11zm-.322-.964c.05 0 .09-.037.09-.082 0-.046-.04-.083-.09-.083-.05 0-.09.037-.09.082 0 .046.04.083.09.083zm.178.179c.07 0 .125-.05.125-.11s-.056-.11-.125-.11-.125.05-.125.11.056.11.125.11zm-.249 1.171c.069 0 .125-.05.125-.11 0-.061-.056-.11-.125-.11-.07 0-.126.049-.126.11 0 .06.056.11.126.11zm.678-.344c.034 0 .062-.031.062-.07 0-.037-.028-.068-.062-.068-.035 0-.063.03-.063.069 0 .038.028.069.063.069zm-.553-.592c.035 0 .063-.031.063-.07 0-.037-.028-.068-.063-.068s-.063.03-.063.069c0 .038.029.069.063.069zm.447-.358c.034 0 .062-.031.062-.07 0-.037-.028-.068-.062-.068-.035 0-.063.03-.063.069 0 .038.028.069.063.069zm-.742.22c.035 0 .063-.031.063-.07 0-.038-.028-.069-.063-.069-.034 0-.062.031-.062.07 0 .037.028.068.062.068zm.07.772c.05 0 .09-.037.09-.083 0-.046-.04-.083-.09-.083-.049 0-.089.037-.089.083 0 .046.04.083.09.083z" fill="#DDCBBA"/><path fill-rule="evenodd" clip-rule="evenodd" d="M48.647 16.29c.518 0 .929-.399.929-.895 0-.495-.42-.895-.93-.895-.518 0-.929.4-.929.895-.008.496.411.896.93.896z" fill="#692C2D"/><path fill-rule="evenodd" clip-rule="evenodd" d="M48.648 16.153c.518 0 .93-.4.93-.895 0-.496-.42-.896-.93-.896-.518 0-.93.4-.93.896-.008.482.412.895.93.895z" fill="#6E2E2E"/><path fill-rule="evenodd" clip-rule="evenodd" d="M48.647 16.098c.483 0 .885-.386.885-.84 0-.47-.393-.841-.885-.841-.482 0-.884.386-.884.84 0 .455.393.84.884.84z" fill="#8B3236"/><path d="M47.967 15.079c.034 0 .062-.031.062-.07 0-.037-.028-.068-.062-.068-.035 0-.063.03-.063.069 0 .038.028.069.063.069zm.153.221c.07 0 .125-.05.125-.111s-.056-.11-.125-.11-.125.049-.125.11c0 .06.056.11.125.11zm1.064-.166c.034 0 .062-.031.062-.069 0-.038-.028-.069-.062-.069-.035 0-.063.03-.063.069 0 .038.028.069.063.069zm.159.22c.07 0 .125-.05.125-.11 0-.061-.056-.11-.125-.11s-.125.049-.125.11c0 .06.056.11.125.11zm-1.277.234c.034 0 .062-.03.062-.068 0-.038-.028-.07-.063-.07-.034 0-.062.032-.062.07 0 .038.028.069.063.069zm.768.014c.07 0 .125-.05.125-.11s-.056-.11-.125-.11-.125.05-.125.11.056.11.125.11zm-.321-.964c.05 0 .09-.037.09-.083 0-.045-.04-.082-.09-.082-.05 0-.09.037-.09.082 0 .046.04.083.09.083zm.178.179c.07 0 .125-.05.125-.11 0-.061-.056-.11-.125-.11-.07 0-.125.049-.125.11 0 .06.056.11.125.11zm-.25 1.171c.07 0 .125-.05.125-.11 0-.062-.056-.11-.125-.11-.07 0-.125.048-.125.11 0 .06.056.11.125.11zm.679-.344c.034 0 .062-.031.062-.07 0-.037-.028-.068-.062-.068-.035 0-.063.03-.063.069 0 .038.028.069.063.069zm-.553-.593c.035 0 .063-.03.063-.069 0-.038-.029-.068-.063-.068-.035 0-.063.03-.063.069 0 .037.028.068.063.068zm.447-.358c.034 0 .062-.03.062-.068 0-.039-.028-.07-.062-.07-.035 0-.063.031-.063.07 0 .038.028.068.063.068zm-.742.22c.035 0 .063-.03.063-.069 0-.038-.028-.069-.063-.069s-.063.031-.063.07c0 .037.028.068.063.068zm.07.772c.05 0 .09-.037.09-.082 0-.046-.04-.083-.09-.083-.05 0-.09.037-.09.083 0 .045.04.082.09.082z" fill="#DDCBBA"/><path fill-rule="evenodd" clip-rule="evenodd" d="M47.513 12.71c.518 0 .929-.4.929-.896s-.42-.896-.93-.896c-.517 0-.928.4-.928.896-.01.496.41.895.929.895z" fill="#692C2D"/><path fill-rule="evenodd" clip-rule="evenodd" d="M47.513 12.558c.518 0 .929-.4.929-.896 0-.495-.42-.895-.93-.895-.517 0-.928.4-.928.896-.01.495.41.895.929.895z" fill="#6E2E2E"/><path fill-rule="evenodd" clip-rule="evenodd" d="M47.513 12.517c.483 0 .885-.386.885-.84 0-.469-.393-.84-.885-.84-.482 0-.884.385-.884.84 0 .454.393.84.884.84z" fill="#8B3236"/><path d="M46.833 11.483c.035 0 .063-.03.063-.068 0-.038-.028-.07-.063-.07s-.063.031-.063.07c0 .038.028.069.063.069zm.153.235c.069 0 .125-.05.125-.11 0-.061-.056-.11-.125-.11-.07 0-.125.049-.125.11 0 .06.056.11.125.11zm1.064-.166c.034 0 .062-.03.062-.069 0-.038-.028-.068-.062-.068-.035 0-.063.03-.063.068 0 .038.028.07.063.07zm.16.221c.069 0 .125-.05.125-.11 0-.061-.056-.11-.125-.11-.07 0-.126.049-.126.11 0 .06.056.11.126.11zm-1.278.22c.034 0 .062-.03.062-.069 0-.038-.028-.069-.062-.069-.035 0-.063.031-.063.07 0 .037.028.068.063.068zm.768.027c.07 0 .125-.049.125-.11 0-.06-.056-.11-.125-.11s-.125.05-.125.11c0 .061.056.11.125.11zm-.32-.978c.049 0 .089-.037.089-.082 0-.046-.04-.083-.09-.083-.049 0-.089.037-.089.083 0 .045.04.082.09.082zm.177.194c.07 0 .125-.05.125-.11 0-.061-.056-.11-.125-.11s-.125.049-.125.11c0 .06.056.11.125.11zm-.25 1.17c.07 0 .125-.049.125-.11 0-.06-.056-.11-.125-.11s-.125.05-.125.11c0 .061.056.11.125.11zm.679-.344c.034 0 .063-.03.063-.069 0-.038-.029-.069-.063-.069-.035 0-.063.031-.063.07 0 .037.028.068.063.068zm-.553-.592c.035 0 .063-.031.063-.07 0-.037-.028-.068-.063-.068-.034 0-.062.03-.062.069 0 .038.028.069.062.069zm.447-.359c.034 0 .063-.03.063-.069 0-.037-.029-.068-.063-.068-.035 0-.063.03-.063.069 0 .038.028.068.063.068zm-.742.221c.034 0 .062-.03.062-.069 0-.038-.028-.069-.062-.069-.035 0-.063.031-.063.07 0 .037.028.068.063.068zm.072.771c.05 0 .09-.037.09-.082 0-.046-.04-.083-.09-.083-.05 0-.09.037-.09.083 0 .045.04.082.09.082z" fill="#DDCBBA"/><path fill-rule="evenodd" clip-rule="evenodd" d="M44.225 10.837c.089-.124.25-.896.795-.896 1.072.014 1.384.91 1.447 1.598.054.606-.536 1.309-1.108 1.405-.643.124-1.554-.303-1.733-1.019-.179-.716.402-.785.599-1.088z" fill="#C40202"/><path fill-rule="evenodd" clip-rule="evenodd" d="M44.227 10.616c.09-.124.25-.895.796-.895 1.072.013 1.384.909 1.447 1.598.054.606-.536 1.308-1.108 1.405-.643.124-1.554-.303-1.733-1.006-.179-.73.402-.799.599-1.102z" fill="url(#paint3_linear)"/><path fill-rule="evenodd" clip-rule="evenodd" d="M44.305 10.67c.08-.123.233-.826.724-.812.974.014 1.26.827 1.322 1.46.045.551-.491 1.199-1.01 1.281-.589.097-1.41-.289-1.58-.936-.17-.648.366-.717.544-.992z" fill="#F07464"/><path fill-rule="evenodd" clip-rule="evenodd" d="M44.796 10.754c.072-.137.18-.289.34-.303.545-.027.67.441.679.813.009.33-.322.744-.616.813-.331.082-.831-.055-.894-.441a.514.514 0 01.17-.455 2.674 2.674 0 00-.402-.413.54.54 0 00.152-.151c.017-.028.044-.11.089-.193.17.124.304.234.482.33z" fill="#FFB596"/><path fill-rule="evenodd" clip-rule="evenodd" d="M44.85 10.685c-.151-.593.224-.868.823-.345.41.358.437.717.34 1.185-.063.29-.412 0-.34-.207.232-.633-.572-1.226-.563-.523 0 .11-.215.082-.26-.11zm-.438.62c-.563.124-.634.606.062.936.492.235.796.097 1.144-.193.223-.192-.179-.399-.33-.234-.438.496-1.287-.014-.688-.303.107-.055-.01-.248-.188-.206z" fill="#E52614"/><path fill-rule="evenodd" clip-rule="evenodd" d="M47.254 8.288c.09-.124.25-.895.795-.895 1.072.013 1.385.909 1.447 1.597.054.607-.536 1.31-1.108 1.405-.643.11-1.554-.316-1.733-1.033-.178-.702.402-.785.599-1.074z" fill="#C40202"/><path fill-rule="evenodd" clip-rule="evenodd" d="M47.254 8.067c.09-.124.25-.895.795-.895 1.072.014 1.385.909 1.447 1.598.054.606-.536 1.308-1.108 1.405-.643.11-1.554-.317-1.733-1.033-.178-.703.402-.772.599-1.075z" fill="url(#paint4_linear)"/><path fill-rule="evenodd" clip-rule="evenodd" d="M47.334 8.122c.08-.124.232-.826.724-.813.974.014 1.26.827 1.322 1.46.045.551-.491 1.199-1.01 1.281-.59.097-1.411-.289-1.58-.936-.17-.648.365-.716.544-.992z" fill="#F07464"/><path fill-rule="evenodd" clip-rule="evenodd" d="M47.825 8.191c.072-.137.179-.289.34-.303.545-.027.67.441.679.813.009.33-.322.744-.617.813-.33.082-.83-.055-.893-.441a.513.513 0 01.17-.455 2.67 2.67 0 00-.402-.413.54.54 0 00.151-.151c.018-.028.045-.11.09-.193.16.124.304.248.482.33z" fill="#FFB596"/><path fill-rule="evenodd" clip-rule="evenodd" d="M47.88 8.122c-.152-.592.223-.868.821-.344.411.358.438.716.34 1.184-.063.29-.411 0-.34-.206.233-.634-.571-1.226-.562-.524 0 .11-.215.083-.26-.11zm-.438.621c-.563.124-.634.606.063.936.491.234.795.11 1.143-.193.224-.192-.178-.4-.33-.234-.438.496-1.287-.014-.688-.303.107-.055-.01-.248-.188-.206z" fill="#E52614"/><path fill-rule="evenodd" clip-rule="evenodd" d="M43.295 6.952c.09-.124.25-.896.795-.896 1.072.014 1.385.91 1.448 1.598.053.606-.536 1.309-1.108 1.405-.644.11-1.555-.317-1.733-1.033-.188-.703.402-.771.598-1.074z" fill="#C40202"/><path fill-rule="evenodd" clip-rule="evenodd" d="M43.298 6.731c.09-.124.25-.895.796-.895 1.072.014 1.384.91 1.447 1.598.054.606-.536 1.308-1.108 1.405-.643.11-1.554-.317-1.733-1.033-.188-.703.402-.772.598-1.075z" fill="url(#paint5_linear)"/><path fill-rule="evenodd" clip-rule="evenodd" d="M43.376 6.787c.08-.124.232-.827.724-.813.974.014 1.26.826 1.322 1.46.045.551-.491 1.198-1.01 1.281-.59.096-1.411-.29-1.58-.937-.17-.647.365-.716.544-.991z" fill="#F07464"/><path fill-rule="evenodd" clip-rule="evenodd" d="M43.868 6.87c.071-.139.178-.29.34-.304.544-.027.67.44.678.813.01.33-.321.744-.616.813-.33.082-.831-.056-.894-.441a.514.514 0 01.17-.455 2.667 2.667 0 00-.402-.413.539.539 0 00.152-.152c.018-.027.045-.11.09-.192.16.11.303.234.482.33z" fill="#FFB596"/><path fill-rule="evenodd" clip-rule="evenodd" d="M43.922 6.8c-.152-.592.223-.867.822-.344.41.358.438.716.34 1.185-.063.289-.412 0-.34-.207.232-.634-.572-1.226-.563-.523 0 .096-.214.082-.259-.11zm-.448.606c-.563.124-.634.606.062.937.492.234.795.096 1.144-.193.223-.193-.179-.4-.33-.234-.438.496-1.287-.014-.689-.303.117-.055 0-.234-.187-.207z" fill="#E52614"/><path fill-rule="evenodd" clip-rule="evenodd" d="M40.267 9.555c.519 0 .93-.4.93-.895 0-.496-.42-.896-.93-.896-.518 0-.929.4-.929.896 0 .495.42.895.93.895z" fill="#692C2D"/><path fill-rule="evenodd" clip-rule="evenodd" d="M40.267 9.417c.519 0 .93-.4.93-.895 0-.496-.42-.896-.93-.896-.518 0-.929.4-.929.896s.42.895.93.895z" fill="#6E2E2E"/><path fill-rule="evenodd" clip-rule="evenodd" d="M40.268 9.362c.483 0 .885-.386.885-.84 0-.468-.393-.84-.885-.84-.482 0-.884.385-.884.84a.87.87 0 00.884.84z" fill="#8B3236"/><path d="M39.59 8.343c.034 0 .062-.031.062-.069 0-.038-.028-.069-.063-.069-.034 0-.062.03-.062.069 0 .038.028.069.062.069zm.16.22c.069 0 .125-.05.125-.11s-.056-.11-.125-.11c-.07 0-.126.05-.126.11s.056.11.126.11zm1.063-.165c.035 0 .063-.03.063-.069 0-.038-.028-.069-.063-.069-.034 0-.062.031-.062.07 0 .037.028.068.063.068zm.152.22c.07 0 .125-.049.125-.11 0-.06-.056-.11-.125-.11-.07 0-.125.05-.125.11 0 .061.056.11.125.11zm-1.269.235c.035 0 .063-.031.063-.07 0-.037-.028-.068-.063-.068-.034 0-.062.03-.062.069 0 .038.028.069.062.069zm.769.027c.07 0 .125-.049.125-.11 0-.06-.056-.11-.125-.11-.07 0-.125.05-.125.11 0 .061.056.11.125.11zm-.331-.978c.05 0 .09-.037.09-.083 0-.046-.04-.083-.09-.083-.05 0-.09.037-.09.083 0 .046.04.083.09.083zm.18.178c.069 0 .125-.049.125-.11 0-.06-.056-.11-.125-.11-.07 0-.126.05-.126.11 0 .061.056.11.126.11zm-.242 1.172c.069 0 .125-.05.125-.11 0-.061-.056-.11-.125-.11-.07 0-.125.049-.125.11 0 .06.056.11.125.11zm.668-.344c.035 0 .063-.031.063-.07 0-.037-.028-.068-.062-.068-.035 0-.063.03-.063.069 0 .038.028.069.063.069zm-.552-.578c.035 0 .063-.032.063-.07 0-.038-.028-.069-.063-.069s-.063.031-.063.07c0 .037.029.068.063.068zm.447-.373c.034 0 .062-.03.062-.069 0-.038-.028-.069-.062-.069-.035 0-.063.031-.063.07 0 .037.028.068.063.068zm-.742.221c.034 0 .062-.031.062-.07 0-.037-.028-.068-.062-.068-.035 0-.063.03-.063.069 0 .038.028.069.063.069zm.08.785c.05 0 .09-.037.09-.083 0-.046-.04-.083-.09-.083-.05 0-.09.037-.09.083 0 .046.04.083.09.083z" fill="#DDCBBA"/><path fill-rule="evenodd" clip-rule="evenodd" d="M39.196 6.387c.09-.124.25-.895.795-.895 1.072.013 1.385.909 1.448 1.598.053.606-.536 1.308-1.108 1.405-.643.11-1.555-.317-1.733-1.033-.179-.703.402-.786.598-1.075z" fill="#C40202"/><path fill-rule="evenodd" clip-rule="evenodd" d="M39.196 6.166c.09-.124.25-.895.795-.895 1.072.014 1.385.91 1.448 1.598.053.606-.536 1.309-1.108 1.405-.643.11-1.555-.317-1.733-1.033-.179-.703.402-.772.598-1.075z" fill="url(#paint6_linear)"/><path fill-rule="evenodd" clip-rule="evenodd" d="M39.276 6.221c.08-.124.232-.826.724-.813.974.014 1.26.827 1.322 1.46.045.552-.491 1.199-1.01 1.282-.59.11-1.42-.276-1.581-.923-.17-.662.366-.73.545-1.006z" fill="#F07464"/><path fill-rule="evenodd" clip-rule="evenodd" d="M39.768 6.29c.071-.137.178-.289.34-.302.544-.028.678.44.678.812.01.33-.322.744-.616.813-.33.083-.831-.055-.894-.44a.514.514 0 01.17-.455 2.667 2.667 0 00-.402-.414.538.538 0 00.152-.151c.018-.028.044-.11.09-.193.16.124.303.248.482.33z" fill="#FFB596"/><path fill-rule="evenodd" clip-rule="evenodd" d="M39.821 6.221c-.151-.592.224-.868.822-.344.411.358.438.716.34 1.185-.063.289-.411 0-.34-.207.233-.634-.572-1.226-.563-.523 0 .11-.214.082-.259-.11zm-.446.621c-.563.124-.634.606.063.936.491.235.795.097 1.143-.192.224-.193-.178-.4-.33-.235-.438.496-1.287-.013-.688-.303.116-.055 0-.248-.188-.206z" fill="#E52614"/><path fill-rule="evenodd" clip-rule="evenodd" d="M44.377 14.79c.259 0 .473.206.473.454a.468.468 0 01-.474.455v-.22a.232.232 0 00.242-.235.24.24 0 00-.242-.234v-.22zm0 .895a.468.468 0 01-.474-.454c0-.248.214-.455.474-.455v.22a.232.232 0 00-.242.235.24.24 0 00.242.234v.22z" fill="#4C3A68"/><path fill-rule="evenodd" clip-rule="evenodd" d="M44.378 14.665c.26 0 .474.207.474.455a.468.468 0 01-.474.455v-.207c.134 0 .25-.11.25-.234 0-.138-.107-.234-.25-.234v-.235zm0 .91a.468.468 0 01-.474-.455c0-.248.215-.454.474-.454v.206c-.134 0-.25.11-.25.234 0 .138.107.235.25.235v.234z" fill="#634C86"/><path fill-rule="evenodd" clip-rule="evenodd" d="M42.126 7.681c.259 0 .473.207.473.455a.468.468 0 01-.473.455v-.22a.232.232 0 00.24-.235.232.232 0 00-.24-.234v-.22zm0 .896a.468.468 0 01-.474-.455c0-.248.214-.455.474-.455v.22c-.135 0-.242.097-.242.235 0 .138.107.234.242.234v.22z" fill="#4C3A68"/><path fill-rule="evenodd" clip-rule="evenodd" d="M42.126 7.571c.259 0 .473.207.473.455a.468.468 0 01-.473.455v-.207c.134 0 .25-.11.25-.234 0-.138-.107-.234-.25-.234V7.57zm0 .896a.468.468 0 01-.474-.455c0-.248.214-.454.474-.454v.22c-.135 0-.25.11-.25.234 0 .138.107.235.25.235v.22z" fill="#634C86"/><path fill-rule="evenodd" clip-rule="evenodd" d="M40.428 10.34c.259 0 .473.207.473.455a.468.468 0 01-.473.454v-.22a.232.232 0 00.241-.234.24.24 0 00-.241-.235v-.22zm0 .896a.468.468 0 01-.474-.455c0-.248.215-.455.474-.455v.22a.232.232 0 00-.241.235.24.24 0 00.24.234v.22z" fill="#4C3A68"/><path fill-rule="evenodd" clip-rule="evenodd" d="M40.43 10.23c.258 0 .473.207.473.455a.468.468 0 01-.474.454v-.206c.134 0 .25-.11.25-.234 0-.138-.107-.235-.25-.235v-.234zm0 .896a.468.468 0 01-.474-.455c0-.248.214-.455.473-.455v.207c-.134 0-.25.11-.25.234 0 .138.107.235.25.235v.234z" fill="#634C86"/><path fill-rule="evenodd" clip-rule="evenodd" d="M47.584 13.425c.26 0 .474.207.474.455a.468.468 0 01-.474.455v-.22a.233.233 0 00.242-.235.24.24 0 00-.242-.234v-.22zm0 .896a.468.468 0 01-.473-.455c0-.248.214-.454.474-.454v.22c-.135 0-.242.097-.242.234a.24.24 0 00.241.235v.22z" fill="#4C3A68"/><path fill-rule="evenodd" clip-rule="evenodd" d="M47.584 13.316c.26 0 .474.206.474.454a.468.468 0 01-.474.455v-.207c.134 0 .25-.11.25-.234 0-.138-.107-.234-.25-.234v-.235zm0 .895a.468.468 0 01-.473-.455c0-.248.214-.454.474-.454v.206c-.135 0-.25.11-.25.235 0 .137.106.234.25.234v.234z" fill="#634C86"/><path fill-rule="evenodd" clip-rule="evenodd" d="M48.067 17.062c.26 0 .474.207.474.455a.468.468 0 01-.474.454v-.22a.232.232 0 00.241-.234.24.24 0 00-.241-.235v-.22zm0 .91a.468.468 0 01-.474-.455c0-.248.215-.455.474-.455v.22a.232.232 0 00-.241.235.24.24 0 00.24.234v.22z" fill="#4C3A68"/><path fill-rule="evenodd" clip-rule="evenodd" d="M48.067 16.952c.26 0 .474.207.474.455a.468.468 0 01-.474.454v-.206c.134 0 .25-.11.25-.234 0-.138-.107-.235-.25-.235v-.234zm0 .91a.468.468 0 01-.474-.455c0-.248.215-.455.474-.455v.207c-.134 0-.25.11-.25.234 0 .138.107.234.25.234v.235z" fill="#634C86"/><path fill-rule="evenodd" clip-rule="evenodd" d="M52.998 11.814c.259 0 .473.206.473.454a.468.468 0 01-.473.455v-.22a.232.232 0 00.24-.235.24.24 0 00-.24-.234v-.22zm0 .895a.468.468 0 01-.474-.454c0-.248.214-.455.474-.455v.22a.233.233 0 00-.242.235.24.24 0 00.242.234v.22z" fill="#4C3A68"/><path fill-rule="evenodd" clip-rule="evenodd" d="M52.998 11.704c.26 0 .474.206.474.454a.468.468 0 01-.474.455v-.207c.134 0 .25-.11.25-.234 0-.138-.107-.234-.25-.234v-.234zm0 .895a.468.468 0 01-.474-.454c0-.248.215-.455.474-.455v.22c-.134 0-.25.11-.25.235 0 .137.107.234.25.234v.22z" fill="#634C86"/><path fill-rule="evenodd" clip-rule="evenodd" d="M51.622 13.743c-.089-.124-.25-.895-.795-.895-1.072.013-1.385.909-1.447 1.597-.054.607.536 1.31 1.108 1.406.643.11 1.554-.317 1.733-1.034.179-.702-.402-.77-.599-1.074z" fill="#C40202"/><path fill-rule="evenodd" clip-rule="evenodd" d="M51.625 13.522c-.089-.124-.25-.895-.795-.895-1.072.014-1.385.91-1.447 1.598-.054.606.536 1.309 1.108 1.405.643.11 1.554-.317 1.733-1.033.179-.703-.402-.772-.599-1.075z" fill="url(#paint7_linear)"/><path fill-rule="evenodd" clip-rule="evenodd" d="M51.543 13.577c-.08-.124-.232-.826-.724-.813-.973.014-1.26.827-1.322 1.46-.044.551.492 1.199 1.01 1.282.59.096 1.411-.29 1.581-.937.17-.648-.366-.716-.545-.992z" fill="#F07464"/><path fill-rule="evenodd" clip-rule="evenodd" d="M51.05 13.66c-.07-.137-.178-.289-.339-.302-.545-.028-.67.44-.679.812-.008.33.322.744.617.813.33.083.83-.055.893-.44a.513.513 0 00-.17-.455c.108-.138.25-.29.403-.413a.54.54 0 01-.152-.152c-.018-.028-.045-.11-.09-.193-.17.124-.303.234-.482.33z" fill="#FFB596"/><path fill-rule="evenodd" clip-rule="evenodd" d="M50.996 13.591c.152-.592-.223-.867-.822-.344-.41.358-.438.716-.34 1.185.063.289.412 0 .34-.207-.232-.634.572-1.226.563-.523 0 .11.215.082.26-.11zm.438.619c.563.125.635.607-.062.938-.492.234-.795.11-1.144-.193-.223-.193.179-.4.33-.235.438.496 1.287-.013.689-.303-.108-.055.009-.248.187-.206z" fill="#E52614"/><path fill-rule="evenodd" clip-rule="evenodd" d="M51.516 6.47c.259 0 .473.206.473.454a.468.468 0 01-.473.455v-.22c.134 0 .24-.097.24-.235a.24.24 0 00-.24-.234v-.22zm0 .895a.468.468 0 01-.474-.455c0-.248.215-.454.474-.454v.22a.232.232 0 00-.242.234.24.24 0 00.242.234v.22z" fill="#4C3A68"/><path fill-rule="evenodd" clip-rule="evenodd" d="M51.516 6.36c.259 0 .473.206.473.454a.468.468 0 01-.473.455v-.207c.134 0 .25-.11.25-.234 0-.138-.107-.234-.25-.234v-.235zm0 .895a.468.468 0 01-.474-.455c0-.248.215-.454.474-.454v.206c-.134 0-.25.11-.25.235 0 .137.107.234.25.234v.234z" fill="#634C86"/><path fill-rule="evenodd" clip-rule="evenodd" d="M52.722 7.006c.259 0 .473.207.473.455a.468.468 0 01-.473.455v-.22a.232.232 0 00.241-.235.24.24 0 00-.241-.234v-.22zm0 .896a.468.468 0 01-.474-.455c0-.248.215-.454.474-.454v.234c-.134 0-.242.096-.242.234a.24.24 0 00.242.234v.207z" fill="#4C3A68"/><path fill-rule="evenodd" clip-rule="evenodd" d="M52.722 6.897c.259 0 .473.206.473.454a.468.468 0 01-.473.455v-.207c.134 0 .25-.11.25-.234 0-.138-.107-.234-.25-.234v-.234zm0 .895a.468.468 0 01-.474-.454c0-.249.215-.455.474-.455v.206c-.134 0-.25.11-.25.235 0 .138.107.234.25.234v.234z" fill="#634C86"/><path fill-rule="evenodd" clip-rule="evenodd" d="M43.385 2.942c.259 0 .473.207.473.455a.468.468 0 01-.473.455v-.22a.232.232 0 00.241-.235.24.24 0 00-.241-.234v-.22zm0 .896a.468.468 0 01-.474-.455c0-.248.215-.454.474-.454v.22a.232.232 0 00-.241.234.24.24 0 00.24.235v.22z" fill="#4C3A68"/><path fill-rule="evenodd" clip-rule="evenodd" d="M43.388 2.833c.259 0 .473.206.473.454a.468.468 0 01-.473.455v-.207c.134 0 .25-.11.25-.234 0-.138-.107-.234-.25-.234v-.234zm0 .895a.468.468 0 01-.474-.454c0-.248.215-.455.474-.455v.207c-.134 0-.25.11-.25.234 0 .138.107.234.25.234v.234z" fill="#634C86"/><path fill-rule="evenodd" clip-rule="evenodd" d="M44.618 3.013c.09-.124.25-.896.795-.896 1.072.014 1.385.91 1.447 1.598.054.606-.536 1.309-1.108 1.405-.643.11-1.554-.317-1.733-1.033-.187-.703.402-.771.599-1.074z" fill="#C40202"/><path fill-rule="evenodd" clip-rule="evenodd" d="M44.619 2.792c.09-.124.25-.896.795-.896 1.072.014 1.385.91 1.447 1.598.054.606-.536 1.309-1.107 1.405-.644.11-1.555-.316-1.734-1.033-.187-.702.402-.771.599-1.074z" fill="url(#paint8_linear)"/><path fill-rule="evenodd" clip-rule="evenodd" d="M44.699 2.847c.08-.124.232-.827.724-.813.973.014 1.268.826 1.322 1.46.044.551-.492 1.198-1.01 1.281-.59.097-1.411-.29-1.581-.937-.17-.647.366-.716.545-.991z" fill="#F07464"/><path fill-rule="evenodd" clip-rule="evenodd" d="M45.19 2.93c.072-.138.179-.29.34-.303.544-.027.67.441.678.813.01.33-.321.744-.616.813-.33.082-.83-.056-.893-.441a.514.514 0 01.17-.455 2.666 2.666 0 00-.403-.413.54.54 0 00.152-.152c.018-.027.045-.11.09-.192.16.124.303.234.482.33z" fill="#FFB596"/><path fill-rule="evenodd" clip-rule="evenodd" d="M45.244 2.861c-.152-.592.223-.868.822-.344.41.358.438.716.34 1.184-.063.29-.412 0-.34-.206.232-.634-.572-1.226-.563-.524 0 .11-.215.083-.26-.11zm-.448.619c-.563.124-.634.606.063.937.491.234.795.11 1.143-.193.224-.193-.178-.4-.33-.234-.438.496-1.287-.014-.688-.303.116-.055 0-.248-.188-.207z" fill="#E52614"/><path fill-rule="evenodd" clip-rule="evenodd" d="M48.067 4.651c.26 0 .474.207.474.455a.468.468 0 01-.474.455v-.22a.232.232 0 00.241-.235.24.24 0 00-.241-.234v-.22zm0 .91a.468.468 0 01-.474-.455c0-.248.215-.455.474-.455v.22a.232.232 0 00-.241.235.24.24 0 00.24.234v.22z" fill="#4C3A68"/><path fill-rule="evenodd" clip-rule="evenodd" d="M48.067 4.541c.26 0 .474.207.474.455a.468.468 0 01-.474.454v-.206c.134 0 .25-.11.25-.235 0-.137-.107-.234-.25-.234v-.234zm0 .91a.468.468 0 01-.474-.455c0-.248.215-.455.474-.455v.207c-.134 0-.25.11-.25.234 0 .138.107.234.25.234v.234z" fill="#634C86"/><path fill-rule="evenodd" clip-rule="evenodd" d="M44.975 9.596c.518 0 .93-.4.93-.895 0-.496-.42-.896-.93-.896-.518 0-.929.4-.929.896-.009.495.411.895.93.895z" fill="#692C2D"/><path fill-rule="evenodd" clip-rule="evenodd" d="M44.975 9.458c.518 0 .93-.4.93-.895 0-.496-.42-.896-.93-.896-.518 0-.929.4-.929.896-.009.496.411.895.93.895z" fill="#6E2E2E"/><path fill-rule="evenodd" clip-rule="evenodd" d="M44.976 9.403c.482 0 .884-.386.884-.84 0-.468-.393-.84-.884-.84-.483 0-.885.385-.885.84 0 .468.402.84.885.84z" fill="#8B3236"/><path d="M44.297 8.384c.035 0 .063-.03.063-.069 0-.038-.029-.068-.063-.068-.035 0-.063.03-.063.068 0 .039.028.07.063.07zm.162.22c.069 0 .125-.05.125-.11s-.056-.11-.125-.11c-.07 0-.126.05-.126.11s.056.11.126.11zm1.063-.164c.034 0 .062-.032.062-.07 0-.038-.028-.069-.063-.069-.034 0-.062.031-.062.07 0 .037.028.068.063.068zm.15.22c.07 0 .126-.05.126-.11 0-.062-.056-.111-.126-.111-.069 0-.125.05-.125.11 0 .061.056.11.126.11zm-1.276.234c.035 0 .063-.031.063-.07 0-.037-.028-.068-.063-.068s-.063.03-.063.069c0 .038.029.069.063.069zm.767.028c.07 0 .125-.05.125-.11 0-.061-.056-.11-.125-.11s-.125.049-.125.11c0 .06.056.11.125.11zm-.321-.979c.05 0 .09-.037.09-.083 0-.046-.04-.083-.09-.083-.05 0-.09.037-.09.083 0 .046.04.083.09.083zm.179.179c.07 0 .125-.05.125-.11 0-.061-.056-.11-.125-.11s-.125.049-.125.11c0 .06.056.11.125.11zm-.241 1.171c.069 0 .124-.05.124-.11 0-.061-.056-.11-.125-.11s-.125.049-.125.11c0 .06.056.11.125.11zm.67-.345c.034 0 .062-.03.062-.069 0-.038-.028-.068-.062-.068-.035 0-.063.03-.063.068 0 .038.028.07.063.07zm-.554-.578c.034 0 .062-.031.062-.07 0-.037-.028-.068-.062-.068-.035 0-.063.03-.063.069 0 .038.028.069.063.069zm.446-.358c.035 0 .063-.031.063-.07 0-.037-.028-.068-.063-.068-.034 0-.062.03-.062.069 0 .038.028.069.062.069zm-.741.206c.035 0 .063-.03.063-.069 0-.038-.028-.068-.063-.068-.034 0-.062.03-.062.068 0 .039.028.07.062.07zm.071.786c.05 0 .09-.037.09-.083 0-.046-.04-.083-.09-.083-.049 0-.089.037-.089.083 0 .046.04.083.09.083z" fill="#DDCBBA"/><path fill-rule="evenodd" clip-rule="evenodd" d="M49.282 4.637c.519 0 .93-.399.93-.895s-.42-.895-.93-.895c-.518 0-.929.4-.929.895-.009.496.411.895.93.895z" fill="#692C2D"/><path fill-rule="evenodd" clip-rule="evenodd" d="M49.282 4.5c.519 0 .93-.4.93-.896s-.42-.895-.93-.895c-.518 0-.929.4-.929.895-.009.496.411.896.93.896z" fill="#6E2E2E"/><path fill-rule="evenodd" clip-rule="evenodd" d="M49.283 4.444c.482 0 .884-.385.884-.84 0-.468-.393-.84-.884-.84-.483 0-.885.385-.885.84 0 .468.393.84.885.84z" fill="#8B3236"/><path d="M48.604 3.425c.035 0 .063-.03.063-.069 0-.038-.028-.068-.063-.068s-.063.03-.063.068c0 .039.029.07.063.07z" fill="#DDCBBA"/><path fill-rule="evenodd" clip-rule="evenodd" d="M48.765 3.66c.071 0 .125-.055.125-.11 0-.07-.054-.11-.125-.11-.063 0-.125.055-.125.11s.053.11.125.11z" fill="#DDCBBA"/><path d="M49.828 3.48c.035 0 .063-.03.063-.068 0-.038-.028-.07-.063-.07-.034 0-.062.032-.062.07 0 .038.028.069.062.069z" fill="#DDCBBA"/><path fill-rule="evenodd" clip-rule="evenodd" d="M49.98 3.715c.07 0 .124-.056.124-.11 0-.07-.053-.11-.125-.11-.062 0-.125.054-.125.11 0 .054.063.11.125.11z" fill="#DDCBBA"/><path d="M48.702 3.935c.035 0 .063-.03.063-.069 0-.038-.028-.069-.063-.069-.034 0-.062.031-.062.07 0 .037.028.068.062.068zm.768.028c.069 0 .125-.05.125-.11 0-.061-.056-.11-.125-.11-.07 0-.125.049-.125.11 0 .06.056.11.125.11zm-.322-.978c.05 0 .09-.037.09-.083 0-.046-.04-.083-.09-.083-.049 0-.089.037-.089.083 0 .046.04.083.09.083z" fill="#DDCBBA"/><path fill-rule="evenodd" clip-rule="evenodd" d="M49.328 3.177c.063 0 .125-.055.125-.11 0-.069-.053-.11-.125-.11-.071 0-.125.055-.125.11s.063.11.125.11z" fill="#DDCBBA"/><path d="M49.086 4.334c.07 0 .125-.05.125-.11s-.056-.11-.125-.11-.125.05-.125.11.056.11.125.11zm.669-.33c.035 0 .063-.03.063-.069 0-.038-.028-.069-.063-.069-.034 0-.062.031-.062.07 0 .037.028.068.062.068zm-.553-.593c.035 0 .063-.03.063-.069 0-.038-.028-.069-.063-.069-.034 0-.062.031-.062.07 0 .037.028.068.062.068zm.447-.358c.035 0 .063-.03.063-.069 0-.038-.029-.068-.063-.068-.035 0-.063.03-.063.068 0 .038.028.07.063.07zm-.742.221c.035 0 .063-.03.063-.069 0-.038-.028-.069-.063-.069-.034 0-.062.031-.062.07 0 .037.028.068.062.068zm.073.771c.049 0 .089-.037.089-.082 0-.046-.04-.083-.09-.083-.049 0-.089.037-.089.083 0 .045.04.082.09.082z" fill="#DDCBBA"/><path fill-rule="evenodd" clip-rule="evenodd" d="M51.06 4.527c-.09-.124-.25-.895-.796-.895-1.072.014-1.385.909-1.447 1.598-.054.606.536 1.308 1.108 1.405.643.11 1.554-.317 1.733-1.033.188-.703-.402-.772-.599-1.075z" fill="#C40202"/><path fill-rule="evenodd" clip-rule="evenodd" d="M51.06 4.306c-.089-.123-.25-.895-.795-.895-1.072.014-1.385.91-1.447 1.598-.054.606.536 1.309 1.108 1.405.643.11 1.554-.317 1.733-1.033.188-.703-.402-.771-.599-1.075z" fill="url(#paint9_linear)"/><path fill-rule="evenodd" clip-rule="evenodd" d="M50.98 4.361c-.08-.124-.233-.826-.724-.812-.974.013-1.269.826-1.322 1.46-.045.55.491 1.198 1.01 1.28.589.097 1.41-.289 1.58-.936.17-.647-.366-.716-.544-.992z" fill="#F07464"/><path fill-rule="evenodd" clip-rule="evenodd" d="M50.487 4.444c-.071-.137-.178-.289-.34-.303-.544-.027-.67.441-.678.813-.009.33.322.744.616.813.331.082.831-.055.894-.441a.513.513 0 00-.17-.455c.107-.137.25-.289.402-.413a.541.541 0 01-.152-.151c-.018-.028-.044-.11-.09-.193-.16.124-.303.234-.482.33z" fill="#FFB596"/><path fill-rule="evenodd" clip-rule="evenodd" d="M50.443 4.376c.152-.593-.223-.868-.822-.345-.41.358-.438.717-.34 1.185.063.29.412 0 .34-.207-.232-.633.572-1.226.563-.523 0 .096.205.082.259-.11zm.437.619c.563.124.635.606-.062.937-.491.234-.795.11-1.143-.193-.224-.193.178-.4.33-.234.438.496 1.287-.014.688-.303-.107-.069 0-.248.188-.207z" fill="#E52614"/><path fill-rule="evenodd" clip-rule="evenodd" d="M43.321 9.265c.26 0 .474.207.474.455a.468.468 0 01-.474.455v-.22a.232.232 0 00.242-.235.24.24 0 00-.242-.234v-.22zm0 .896a.468.468 0 01-.473-.455c0-.248.214-.455.473-.455v.22a.232.232 0 00-.241.235.24.24 0 00.241.234v.22z" fill="#4C3A68"/><path fill-rule="evenodd" clip-rule="evenodd" d="M43.322 9.155c.259 0 .473.207.473.455a.468.468 0 01-.473.455v-.22c.134 0 .25-.11.25-.235 0-.138-.107-.234-.25-.234v-.22zm0 .896a.468.468 0 01-.474-.455c0-.248.215-.454.474-.454v.206c-.134 0-.25.11-.25.235 0 .137.107.234.25.234v.234z" fill="#634C86"/><path fill-rule="evenodd" clip-rule="evenodd" d="M46.342 7.269c.26 0 .474.206.474.454a.468.468 0 01-.474.455v-.22a.232.232 0 00.242-.235.24.24 0 00-.242-.234v-.22zm0 .909a.468.468 0 01-.473-.455c0-.248.214-.454.473-.454v.22c-.134 0-.241.096-.241.234a.24.24 0 00.241.234v.22z" fill="#4C3A68"/><path fill-rule="evenodd" clip-rule="evenodd" d="M46.344 7.159c.259 0 .473.206.473.454a.468.468 0 01-.473.455v-.207c.134 0 .25-.11.25-.234 0-.138-.107-.234-.25-.234v-.234zm0 .91a.468.468 0 01-.474-.456c0-.248.215-.454.474-.454v.206c-.134 0-.25.11-.25.235 0 .137.107.234.25.234v.234z" fill="#634C86"/><path fill-rule="evenodd" clip-rule="evenodd" d="M44.136 4.803c.26 0 .474.206.474.454a.468.468 0 01-.474.455v-.22a.232.232 0 00.241-.235.24.24 0 00-.24-.234v-.22zm0 .91a.468.468 0 01-.473-.456c0-.248.214-.454.473-.454v.22a.232.232 0 00-.241.234.24.24 0 00.241.235v.22z" fill="#4C3A68"/><path fill-rule="evenodd" clip-rule="evenodd" d="M44.136 4.692c.26 0 .474.207.474.455a.468.468 0 01-.474.455v-.207c.134 0 .25-.11.25-.234 0-.138-.107-.234-.25-.234v-.235zm0 .91a.468.468 0 01-.473-.455c0-.248.214-.455.473-.455V4.9c-.134 0-.25.11-.25.234 0 .138.107.235.25.235v.234z" fill="#634C86"/><path fill-rule="evenodd" clip-rule="evenodd" d="M51.46 13.632c.26 0 .475.207.475.455a.468.468 0 01-.474.454v-.22a.232.232 0 00.241-.234.24.24 0 00-.241-.235v-.22zm0 .896a.468.468 0 01-.473-.455c0-.248.215-.455.474-.455v.22a.232.232 0 00-.241.235.24.24 0 00.24.234v.22z" fill="#4C3A68"/><path fill-rule="evenodd" clip-rule="evenodd" d="M51.462 13.522c.26 0 .474.207.474.455a.468.468 0 01-.474.454v-.206c.134 0 .25-.11.25-.234 0-.138-.107-.235-.25-.235v-.234zm0 .896a.468.468 0 01-.474-.455c0-.248.215-.455.474-.455v.207c-.134 0-.25.11-.25.234 0 .138.107.234.25.234v.235z" fill="#634C86"/><path fill-rule="evenodd" clip-rule="evenodd" d="M52.998 9.693c.259 0 .473.207.473.455a.468.468 0 01-.473.454v-.22a.232.232 0 00.24-.234.232.232 0 00-.24-.235v-.22zm0 .91a.468.468 0 01-.474-.455c0-.248.214-.455.474-.455v.22a.232.232 0 00-.242.235c0 .137.108.234.242.234v.22z" fill="#4C3A68"/><path fill-rule="evenodd" clip-rule="evenodd" d="M52.998 9.583c.26 0 .474.206.474.454a.468.468 0 01-.474.455v-.207c.134 0 .25-.11.25-.234a.243.243 0 00-.25-.234v-.234zm0 .909a.468.468 0 01-.474-.455c0-.248.215-.454.474-.454v.206c-.134 0-.25.11-.25.234 0 .124.107.235.25.235v.234z" fill="#634C86"/><path fill-rule="evenodd" clip-rule="evenodd" d="M41.232 12.93c.26 0 .474.206.474.454a.468.468 0 01-.474.455v-.22c.135 0 .242-.097.242-.235a.24.24 0 00-.242-.234v-.22zm0 .909a.468.468 0 01-.473-.455c0-.248.214-.455.473-.455v.22a.232.232 0 00-.24.235.24.24 0 00.24.234v.22z" fill="#4C3A68"/><path fill-rule="evenodd" clip-rule="evenodd" d="M41.232 12.82c.26 0 .474.206.474.454a.468.468 0 01-.474.455v-.207c.135 0 .25-.11.25-.234 0-.138-.107-.234-.25-.234v-.235zm0 .909a.468.468 0 01-.473-.455c0-.248.214-.455.473-.455v.207c-.134 0-.25.11-.25.234 0 .138.107.235.25.235v.234z" fill="#634C86"/><path fill-rule="evenodd" clip-rule="evenodd" d="M39.507 6.235c.259 0 .474.207.474.455a.468.468 0 01-.474.454v-.22a.232.232 0 00.241-.234.24.24 0 00-.241-.235v-.22zm0 .91a.468.468 0 01-.474-.455c0-.248.215-.455.474-.455v.22a.232.232 0 00-.241.235.24.24 0 00.24.234v.22z" fill="#4C3A68"/><path fill-rule="evenodd" clip-rule="evenodd" d="M39.508 6.125c.259 0 .473.207.473.455a.468.468 0 01-.473.454v-.22c.134 0 .25-.11.25-.234 0-.138-.107-.235-.25-.235v-.22zm0 .91a.468.468 0 01-.474-.455c0-.248.215-.455.474-.455v.207c-.134 0-.25.11-.25.234 0 .138.107.234.25.234v.234z" fill="#634C86"/><path fill-rule="evenodd" clip-rule="evenodd" d="M42.572 13.48c.259 0 .473.207.473.455a.468.468 0 01-.473.455v-.22a.232.232 0 00.241-.235.24.24 0 00-.241-.234v-.22zm0 .91a.468.468 0 01-.474-.455c0-.248.215-.455.474-.455v.22a.232.232 0 00-.242.235.24.24 0 00.242.234v.22z" fill="#4C3A68"/><path fill-rule="evenodd" clip-rule="evenodd" d="M42.572 13.37c.259 0 .473.207.473.455a.468.468 0 01-.473.455v-.207c.134 0 .25-.11.25-.234 0-.138-.107-.234-.25-.234v-.234zm0 .91a.468.468 0 01-.474-.455c0-.248.215-.454.474-.454v.206c-.134 0-.25.11-.25.235 0 .137.107.234.25.234v.234z" fill="#634C86"/><path fill-rule="evenodd" clip-rule="evenodd" d="M48.897 13.605c.357.261.58.468.858.868.17.247.33-.235.455-.124.027.013.045-.138.045-.138.071-.097.053.151.152-.097.053-.137.277-.096.223-.206-.071-.124-.17-.124-.143-.29.018-.096-.143-.096-.152-.178-.018-.097-.071-.07-.125-.056-.09.028.036-.22-.16-.151-.063.014.008-.124-.054-.097l-.152.056c-.179.055-.134.11-.241.261-.045.07-.116 0-.17.028-.045.027-.16.193-.215.124-.044-.055-.142-.07-.187-.07.241-.013-.018-.054.116-.095.16-.056.215-.014.33-.028.045 0 .278-.138.25-.276-.017-.137-.017-.013.1-.151.053-.055-.1 0 .053-.165.053-.056-.08-.317-.152-.193-.018.027-.107.234-.08.11.026-.138-.019-.358-.117-.18-.053.097-.062.194-.107.29-.08.18-.063-.124-.027-.207.027-.068.054-.192-.035-.11-.108.097-.027-.069-.117-.041-.035.014-.071.069-.107.096-.125.097-.116-.206-.196-.027-.099.22.134.785-.072.978-.25-.028-.518.014-.813.248l-.027.082c.304-.206.545-.289.769-.289h-.01c-.044.469-.214.427-.33.689-.018.055-.071.165-.062.234.017.234.151-.069.151 0-.009.097-.062.165-.053.248.018.11.09.028.071.165-.009.097.018.097.09.056.08-.042 0 .316.098.275.045-.014.08.138.125.193.036.041.072-.055.116.014.116.165.098.069.17-.097.036-.096.045-.082.018-.234-.018-.096.09-.028.107-.096.045-.22.152-.524-.09-.717-.098-.151-.294-.55-.303-.702z" fill="#A6CE39"/><path fill-rule="evenodd" clip-rule="evenodd" d="M50.532 13.88c-.268-.137-.724.083-1.073-.068-.107-.055-.24-.07-.34-.166-.106-.11-.07.014.1.028.133.014.205-.069.339-.069.053 0 .116-.165.151-.22.072-.11-.035.206-.053.248-.018.055.197-.22.223-.276.099-.165-.009.138-.018.166-.026.123.126-.083.18-.083.017 0 .106.041.124.069.063.137.134-.014.206.124.035.055.17.248.16.248zm-.742-1.088c-.099.138-.099.18-.17.33-.09.194-.357.11-.5.194-.152.096.009-.07.071-.097a1.68 1.68 0 00.197-.179c-.099.055-.063-.014.009-.069.053-.041.08-.124.116-.207.009-.027.071-.179.053-.124-.071.193.099.124.152.083.027-.014.063-.041.09 0 .009.014-.027.124-.018.069zm-.983 1.047c.098.179.018.413.072.592.044.152.089.317.089.482 0 .138.045.276.063.372.026.124.026-.069.026-.11-.009-.207.063.041.063.014a4.183 4.183 0 00-.036-.358c-.009-.042-.08-.276-.027-.207.036.041.054.096.099.151.125.138.071-.027.008-.137-.008-.028.063.013.08.013 0 0-.294-.427-.142-.289.018.014.125.014.054-.014-.152-.069-.18-.33-.268-.454a.823.823 0 01-.054-.248c0-.042-.009.096 0 .124 0 .027-.018.096-.027.069z" fill="#82B941"/><path fill-rule="evenodd" clip-rule="evenodd" d="M50.817 6.717c-.394.028-.653.096-1.001.303-.215.124-.25-.4-.393-.386-.027 0-.01-.151-.01-.165-.044-.138-.08.11-.115-.179-.018-.152-.233-.248-.152-.317.098-.082.188-.014.197-.193.008-.11.151 0 .187-.082.036-.083.08-.028.134.027.072.083.018-.22.188-.055.053.055.018-.11.071-.055l.125.138c.152.151.099.179.161.385.027.083.107.07.152.124.036.042.098.276.17.235.053-.028.143.013.196.04-.223-.164.027-.04-.08-.15-.134-.138-.197-.138-.304-.221-.045-.028-.214-.29-.17-.413.054-.124.018 0-.053-.193-.036-.083.09.055-.01-.193-.035-.083.153-.248.188-.096.01.041.045.289.054.151.009-.138.098-.317.152-.096.027.124.009.22.027.33.035.207.08-.082.08-.179 0-.082-.009-.22.063-.069.071.152.044-.055.116.028.027.027.053.11.08.151.099.166.161-.124.188.083.036.262-.313.648-.179.937.241.124.474.317.697.702v.097c-.223-.372-.438-.593-.643-.717h.009c-.072.455.098.524.134.84.009.056.026.194 0 .249-.072.22-.125-.152-.134-.097-.018.097.018.193-.01.262-.035.083-.089-.028-.107.11-.017.097-.035.083-.098 0-.062-.082-.08.29-.16.207-.045-.042-.108.082-.161.11-.045.014-.054-.096-.108-.055-.151.083-.107 0-.125-.193-.017-.11-.017-.11.045-.234.036-.083-.08-.083-.08-.152.009-.234-.018-.578.259-.606.098-.014.366-.275.42-.413z" fill="#A6CE39"/><path fill-rule="evenodd" clip-rule="evenodd" d="M49.236 6.015c.277.027.652.51 1.01.565.116.013.241.082.357.041.125-.041.063.055-.098-.041-.134-.07-.17-.18-.304-.262-.045-.028-.071-.22-.09-.29-.035-.137-.017.207-.017.249 0 .069-.125-.317-.143-.386-.054-.22-.027.124-.027.165 0 .124-.098-.151-.143-.193-.018-.013-.116-.027-.134 0-.09.083-.116-.096-.223 0-.018.042-.197.152-.188.152zm.947-.565c.053.179.045.22.071.413.036.234.304.317.412.482.116.166.008-.069-.036-.138a2.579 2.579 0 01-.134-.275c.08.096.062.027.009-.07a.689.689 0 01-.054-.26.808.808 0 01-.018-.152c.027.22-.116.055-.16-.014-.019-.028-.045-.07-.081-.055-.018 0-.01.124-.01.069zm.652 1.542c-.134.11-.117.372-.215.51-.08.11-.16.234-.196.386-.036.124-.108.22-.152.317-.054.096-.01-.083 0-.11.062-.194-.072 0-.063-.028.036-.124.08-.22.125-.303.018-.042.143-.207.072-.166-.045.028-.072.07-.125.083-.152.055-.063-.069.026-.138.018-.013-.062-.027-.071-.027 0 0 .375-.22.206-.18-.018 0-.117-.054-.045-.04.16.027.25-.207.357-.262.036-.014.099-.152.116-.207.018-.041-.017.096-.026.11-.018 0-.018.07-.01.055z" fill="#82B941"/><path fill-rule="evenodd" clip-rule="evenodd" d="M41.65 6.772a3.25 3.25 0 00.858-.867c.17-.248.331.234.456.124.027-.014.045.137.045.137.071.097.053-.151.152.097.053.138.277.096.223.206-.071.124-.17.124-.143.29.018.096-.143.096-.152.179-.018.096-.071.069-.125.055-.09-.028.036.22-.16.151-.063-.013.008.124-.054.097l-.152-.055c-.179-.055-.134-.11-.241-.262-.045-.069-.117 0-.17-.028-.045-.027-.161-.192-.215-.124-.044.056-.142.07-.187.07.241.013-.018.054.116.096.16.055.214.014.33.027.045 0 .277.138.25.276-.017.138-.017.014.099.151.054.055-.098 0 .054.166.053.055-.08.316-.152.192-.018-.027-.108-.234-.08-.11.026.138-.019.358-.117.18-.053-.097-.062-.194-.107-.29-.08-.179-.063.124-.027.207.027.069.054.193-.036.11-.107-.097-.026.069-.116.041-.035-.014-.071-.069-.107-.096-.125-.097-.116.206-.197.027-.098-.22.135-.785-.071-.978-.25.028-.518-.013-.813-.248l-.027-.082c.304.206.545.289.769.289h-.01c-.044-.468-.223-.427-.33-.689-.018-.055-.072-.165-.063-.234.018-.234.152.069.152 0-.009-.096-.062-.165-.053-.248.018-.11.09-.027.071-.165-.009-.097.018-.097.09-.055.08.041 0-.317.098-.276.044.014.08-.138.125-.193.036-.041.071.055.116-.013.116-.166.098-.07.17.096.036.096.045.083.018.234-.018.097.089.028.107.097.045.22.152.523-.09.716-.098.151-.294.537-.303.702z" fill="#A6CE39"/><path fill-rule="evenodd" clip-rule="evenodd" d="M43.285 6.497c-.268.138-.723-.083-1.072.069-.107.055-.24.069-.34.165-.106.11-.07-.014.1-.027.133-.014.205.069.339.069.053 0 .116.165.151.22.072.11-.035-.207-.053-.248-.018-.055.196.22.223.276.098.165-.009-.138-.018-.166-.026-.124.125.083.179.083a.285.285 0 00.125-.069c.063-.138.134.014.206-.124.035-.055.17-.248.16-.248zm-.741 1.075c-.099-.138-.099-.18-.17-.331-.09-.193-.358-.11-.5-.193-.153-.096.008.069.07.096.028.014.206.18.197.18-.098-.056-.062.013.01.068.053.042.08.124.116.207.009.028.071.18.053.124-.071-.193.099-.124.152-.083.027.014.063.042.09 0 .009 0-.027-.11-.018-.068zm-.983-1.048c.098-.179.018-.413.072-.592.044-.151.089-.317.089-.482 0-.138.044-.275.062-.372.027-.124.027.069.027.11-.009.207.063-.041.063-.013-.01.123-.018.247-.036.358-.009.041-.08.275-.027.206.036-.041.054-.096.099-.151.125-.138.07.027.008.138-.008.027.063-.014.08-.014 0 0-.294.427-.142.289.018-.014.125-.014.053.014-.151.069-.178.33-.268.454a.824.824 0 00-.053.248c0 .042-.01-.096 0-.124 0-.027-.018-.082-.027-.069z" fill="#82B941"/><path fill-rule="evenodd" clip-rule="evenodd" d="M45.985 10.437c.366-.22.616-.33 1-.358.233-.014.117-.524.25-.606.027-.014-.035-.138-.035-.152 0-.152.107.041.062-.234-.026-.152.143-.372.054-.386-.107-.014-.179.11-.232-.041-.036-.097-.143.096-.188.041-.054-.055-.08.028-.116.11-.045.124-.08-.193-.179.07-.036.082-.053-.097-.08-.015l-.08.207c-.09.234-.045.22-.045.455 0 .096-.08.137-.099.206-.017.07-.017.317-.089.33-.054.015-.125.111-.17.166.161-.29-.035-.014.036-.193.08-.206.143-.248.215-.4.026-.054.124-.399.044-.481-.08-.07-.018.013 0-.22.01-.097-.062.096-.044-.18.008-.096-.206-.124-.197.028 0 .041.036.289-.009.165-.045-.124-.179-.234-.17 0 .01.124.045.207.063.33.027.221-.099-.013-.116-.11-.018-.082-.054-.192-.072-.027-.027.193-.053-.014-.098.096-.018.042-.018.124-.027.18-.045.206-.179-.014-.143.192.045.262.456.4.411.744-.188.262-.348.592-.447 1.075.01.027.018.055.027.082.107-.482.241-.813.393-1.06v.013c.188.372.045.537.099.854.008.055.026.193.062.235.125.151.072-.22.098-.166.045.083.036.193.08.234.063.056.072-.082.126.028.044.083.053.041.09-.069.035-.124.151.207.205.083.026-.07.116 0 .178-.014.045-.014.018-.11.08-.124.162-.014.1-.069.063-.262-.017-.11-.017-.11-.098-.193-.054-.055.054-.124.027-.179-.072-.206-.134-.537-.402-.385-.125.082-.447.027-.527-.07z" fill="#A6CE39"/><path fill-rule="evenodd" clip-rule="evenodd" d="M47.235 8.797c-.242.207-.465.868-.769 1.144-.098.082-.205.22-.313.261-.124.042-.044.083.08-.096.1-.152.108-.276.206-.427.036-.055 0-.248 0-.317 0-.151.072.18.08.22.019.056.028-.371.028-.44-.01-.22.053.096.071.137.036.124.054-.192.08-.261a.287.287 0 01.117-.097c.107.014.08-.151.196-.137.045.013.232 0 .224.013zm-1.019.083c0 .207.018.22.045.413.036.234-.197.482-.25.703-.063.234-.027-.055 0-.152.009-.041.053-.344.053-.33-.044.137-.044.069-.026-.055.018-.097 0-.166-.018-.276a.798.798 0 01-.018-.151c.036.22.125-.028.143-.11.009-.042.027-.097.053-.097.01-.014.045.096.018.055zm-.178 1.818c.152.014.206.262.33.331a.853.853 0 01.287.234c.062.097.16.138.223.193.072.055-.009-.082-.026-.11-.108-.138.062-.041.044-.069a.71.71 0 00-.196-.193c-.027-.014-.188-.096-.108-.11.045 0 .09.014.134 0 .152-.055.036-.096-.053-.11-.018 0 .053-.055.062-.083 0 0-.402.041-.232-.041.018-.014.09-.124.027-.07-.143.125-.277-.027-.393-.013-.036 0-.135-.082-.161-.11-.027-.028.044.069.053.083 0 .013.018.068.01.068z" fill="#82B941"/><path fill-rule="evenodd" clip-rule="evenodd" d="M39.9 12.517c.366-.22.616-.33 1-.358.233-.014.117-.524.25-.606.027-.014-.035-.138-.035-.152 0-.152.107.041.062-.234-.026-.152.143-.372.054-.386-.107-.014-.179.11-.232-.041-.036-.097-.143.096-.188.041-.054-.055-.08.028-.116.11-.045.124-.08-.193-.179.07-.035.082-.053-.097-.08-.014l-.08.206c-.09.234-.045.22-.045.455 0 .096-.08.137-.099.206-.017.07-.017.317-.089.33-.053.015-.125.111-.17.166.161-.29-.035-.014.036-.193.08-.206.143-.248.215-.4.026-.054.125-.399.044-.481-.08-.07-.018.013 0-.22.01-.097-.062.096-.044-.18.008-.096-.206-.124-.197.028 0 .041.036.29-.009.165-.045-.124-.179-.234-.17 0 .01.124.045.207.063.33.027.221-.099-.013-.116-.11-.018-.082-.054-.192-.072-.027-.027.193-.053-.014-.098.096-.018.042-.018.124-.027.18-.045.206-.179-.014-.143.192.045.262.456.4.411.744-.188.262-.348.593-.447 1.075.01.027.018.055.027.082.107-.482.241-.812.393-1.06v.013c.188.372.045.538.099.854.008.056.026.193.062.235.125.151.072-.22.098-.166.045.083.036.193.08.234.063.056.072-.082.126.028.045.083.053.041.09-.069.035-.124.151.207.205.083.026-.07.116 0 .178-.014.045-.014.018-.11.08-.124.162-.014.1-.069.063-.262-.017-.11-.017-.11-.098-.193-.053-.055.054-.123.027-.179-.072-.206-.134-.537-.402-.385-.125.082-.438.027-.527-.07z" fill="#A6CE39"/><path fill-rule="evenodd" clip-rule="evenodd" d="M41.159 10.877c-.241.207-.465.868-.768 1.144-.099.082-.206.22-.313.261-.125.042-.045.083.08-.096.099-.152.108-.275.206-.427.036-.055 0-.248 0-.317 0-.151.071.18.08.22.018.056.027-.371.027-.44-.009-.22.054.096.071.138.036.123.054-.193.08-.262A.286.286 0 0140.74 11c.107.014.08-.151.197-.137.044.027.232 0 .223.013zm-1.019.083c0 .207.018.22.045.413.036.235-.196.482-.25.703-.062.234-.027-.055 0-.152.01-.041.054-.344.054-.33-.045.138-.045.069-.027-.055.018-.097 0-.166-.018-.276a.799.799 0 01-.018-.151c.036.22.125-.028.143-.11.01-.042.027-.097.054-.097.009-.014.035.096.018.055zm-.187 1.819c.152.013.206.261.331.33a.853.853 0 01.286.235c.063.096.16.137.223.192.072.056-.009-.082-.026-.11-.108-.138.062-.041.044-.069a.71.71 0 00-.196-.193c-.027-.013-.188-.096-.108-.11.045 0 .09.014.134 0 .152-.055.036-.096-.053-.11-.018 0 .053-.055.062-.083 0 0-.402.042-.232-.041.018-.014.09-.124.027-.069-.143.124-.277-.028-.393-.014-.036 0-.134-.082-.161-.11-.027-.028.044.069.053.083.01.013.027.069.01.069z" fill="#82B941"/><path fill-rule="evenodd" clip-rule="evenodd" d="M45.315 4.748c.357.262.58.454.858.868.17.248.33-.234.455-.138.027.014.045-.138.045-.138.071-.096.053.152.152-.096.053-.138.277-.097.223-.207-.071-.124-.17-.124-.143-.29.018-.095-.143-.095-.152-.178-.018-.097-.071-.069-.125-.055-.09.027.036-.22-.16-.152-.063.028.008-.124-.054-.096l-.152.055c-.179.055-.134.11-.241.262-.045.069-.117.013-.17.04-.045.029-.16.194-.215.125-.044-.055-.143-.069-.196-.069.241-.027-.018-.055.116-.096.16-.055.215-.014.33-.042.045 0 .278-.137.25-.275-.017-.138-.017-.014.1-.152.053-.055-.1 0 .053-.165.053-.055-.08-.317-.152-.193-.018.041-.107.248-.08.11.026-.137-.019-.358-.117-.179-.053.097-.062.193-.107.29-.08.179-.063-.124-.027-.207.027-.069.054-.193-.035-.11-.108.096-.027-.07-.117-.042-.035.014-.071.07-.107.097-.125.096-.116-.207-.196-.028-.09.22.134.785-.063.978-.25-.027-.518.028-.813.248l-.027.083c.295-.207.545-.29.769-.29h-.01c-.044.469-.214.428-.33.703-.018.055-.071.165-.063.234.018.234.152-.069.152 0-.008.097-.062.166-.053.248.018.11.09.028.08.166-.009.096.018.096.09.055.08-.042.009.316.098.275.044-.014.08.138.125.193.036.041.071-.055.116.014.116.165.098.069.17-.11.036-.097.036-.083.018-.235-.018-.096.089-.027.107-.096.045-.22.152-.523-.098-.716-.099-.152-.295-.538-.304-.69z" fill="#A6CE39"/><path fill-rule="evenodd" clip-rule="evenodd" d="M46.95 4.996c-.269-.124-.724.096-1.073-.069-.107-.055-.24-.069-.34-.165-.106-.11-.07.013.1.027.133.014.205-.069.339-.069.053 0 .116-.165.151-.22.072-.11-.035.207-.044.248-.018.055.196-.22.223-.276.099-.165-.009.138-.018.166-.026.124.125-.083.179-.083a.28.28 0 01.125.069c.063.124.134-.014.206.124.026.055.16.248.151.248zm-.742-1.075c-.099.138-.099.18-.17.33-.09.194-.357.111-.5.208-.152.096.008-.07.071-.097a1.69 1.69 0 00.197-.179c-.099.055-.063-.014.009-.069.053-.041.08-.124.116-.207.009-.027.071-.179.053-.124-.071.193.099.124.152.083.027-.014.063-.041.09-.014.009.014-.027.124-.018.07zm-.982 1.061c.098.18.018.413.072.592.044.152.089.317.089.483 0 .137.045.275.062.372.027.123.027-.07.027-.11-.009-.207.063.04.063.013-.01-.124-.018-.248-.045-.358-.009-.041-.08-.276-.027-.193.036.041.054.097.099.152.125.137.071-.028.008-.138-.008-.028.063.014.08.014 0 0-.294-.427-.142-.29.018.014.125.014.054-.013-.152-.07-.18-.331-.269-.455a.824.824 0 01-.053-.248c0-.041-.009.097 0 .124.009.014-.009.069-.018.055z" fill="#82B941"/><path fill-rule="evenodd" clip-rule="evenodd" d="M50.558 10.533c.367-.22.617-.33 1.001-.358.232-.014.116-.524.25-.606.027-.014-.035-.138-.035-.152 0-.151.107.042.062-.234-.027-.152.143-.372.054-.386-.108-.013-.18.11-.233-.041-.035-.096-.143.096-.187.041-.054-.055-.08.028-.116.11-.045.124-.08-.192-.18.07-.035.082-.053-.097-.08-.014l-.08.206c-.09.234-.045.22-.045.455 0 .096-.08.138-.098.206-.018.07-.018.317-.09.331-.053.014-.124.11-.169.165.16-.289-.036-.014.036-.193.08-.206.143-.247.214-.399.027-.055.125-.4.045-.482-.08-.069-.018.014 0-.22.009-.097-.063.096-.045-.18.01-.096-.205-.124-.196.028 0 .041.035.29-.01.165-.044-.124-.178-.234-.17 0 .01.124.046.207.064.33.026.221-.099-.013-.117-.11-.017-.082-.053-.192-.071-.027-.027.193-.054-.014-.098.097-.018.04-.018.123-.027.179-.045.206-.179-.014-.143.192.044.262.456.4.41.744-.187.262-.348.593-.446 1.075l.027.082c.107-.482.241-.812.393-1.06v.013c.188.372.045.538.098.854.01.056.027.193.063.235.125.151.071-.22.098-.166.045.083.036.193.08.235.063.055.072-.083.126.027.044.083.053.042.089-.069.036-.124.152.207.205.083.027-.069.117 0 .18-.014.044-.014.017-.11.08-.124.16-.014.098-.069.062-.262-.018-.11-.018-.11-.098-.192-.054-.056.053-.124.027-.18-.072-.206-.134-.537-.402-.385-.125.082-.447.014-.528-.07z" fill="#A6CE39"/><path fill-rule="evenodd" clip-rule="evenodd" d="M51.818 8.88c-.242.206-.465.868-.769 1.143-.098.083-.205.22-.313.262-.124.041-.044.082.081-.097.098-.151.107-.275.205-.427.036-.055 0-.248 0-.316 0-.152.072.179.08.22.019.055.028-.372.028-.44-.01-.221.053.096.071.137.036.124.054-.193.08-.262a.287.287 0 01.117-.096c.107.014.08-.152.205-.138.027.028.215.014.215.014zm-1.028.097c0 .206.018.22.045.413.035.234-.197.482-.25.702-.063.235-.027-.055 0-.151.008-.041.053-.344.053-.33-.044.137-.044.068-.027-.056.018-.096 0-.165-.017-.275a.808.808 0 01-.018-.152c.035.22.125-.027.143-.11.008-.041.026-.096.053-.096.01-.014.045.096.018.055zm-.178 1.803c.152.014.206.262.33.331a.853.853 0 01.287.234c.062.097.16.138.223.193.072.055-.009-.082-.027-.11-.107-.138.063-.041.045-.069a.71.71 0 00-.197-.193c-.027-.014-.187-.096-.107-.11.045 0 .09.014.134 0 .152-.055.036-.096-.053-.11-.018 0 .053-.055.062-.083 0 0-.402.042-.232-.041.018-.014.09-.124.026-.069-.142.124-.276-.028-.393-.014-.035 0-.134-.083-.16-.11-.027-.028.044.069.053.083 0 .013.027.082.009.069z" fill="#82B941"/><path fill-rule="evenodd" clip-rule="evenodd" d="M44.965 16.636c-.393.027-.652.096-1 .303-.215.123-.25-.4-.393-.386-.027 0-.01-.152-.01-.166-.044-.137-.08.11-.115-.179-.018-.151-.233-.247-.152-.316.098-.083.187-.014.196-.193.01-.11.152 0 .188-.083.036-.082.08-.027.134.028.072.082.018-.22.188-.055.053.055.018-.11.071-.056l.125.138c.152.152.098.18.161.386.027.083.107.069.152.124.036.041.098.275.17.234.053-.027.143.014.196.041-.223-.165.027-.04-.08-.151-.134-.138-.197-.138-.304-.22-.036-.028-.214-.29-.17-.414.054-.124.018 0-.053-.193-.036-.082.089.056-.01-.192-.035-.083.153-.248.188-.097.01.041.045.29.054.152.009-.138.098-.317.152-.097.027.124.009.22.027.33.035.207.08-.082.08-.178 0-.083-.009-.22.063-.07.071.152.044-.054.116.028.026.028.053.11.08.152.098.165.161-.124.188.083.035.261-.313.647-.179.936.241.124.474.317.697.703v.096c-.223-.372-.438-.592-.643-.716h.009c-.072.454.098.523.134.84.009.055.026.193 0 .248-.072.22-.126-.151-.134-.096-.018.096.017.192-.01.261-.035.083-.089-.027-.107.11-.017.097-.035.083-.098 0-.062-.082-.08.29-.16.207-.045-.041-.108.083-.161.11-.045.028-.054-.096-.108-.055-.152.083-.107 0-.125-.192-.018-.11-.018-.11.045-.235.036-.082-.08-.082-.08-.151.008-.234-.018-.579.259-.606.089-.028.366-.29.42-.413z" fill="#A6CE39"/><path fill-rule="evenodd" clip-rule="evenodd" d="M43.375 15.92c.277.027.652.509 1.01.564.116.014.24.083.357.041.125-.041.063.055-.098-.041-.134-.069-.17-.18-.304-.262-.045-.027-.072-.22-.09-.289-.035-.138-.017.207-.017.248 0 .069-.125-.317-.143-.386-.054-.22-.027.124-.027.166 0 .123-.098-.152-.143-.193-.018-.014-.116-.028-.134 0-.09.082-.116-.097-.223 0-.018.055-.188.151-.188.151zm.955-.566c.054.18.045.22.072.414.036.234.304.317.411.482.116.165.01-.069-.036-.138a2.564 2.564 0 01-.134-.275c.08.096.063.027.01-.07a.687.687 0 01-.054-.261.799.799 0 01-.018-.152c.027.22-.116.056-.161-.013-.018-.028-.045-.07-.08-.055-.018 0-.018.123-.01.068zm.653 1.543c-.134.11-.116.372-.214.51a1.08 1.08 0 00-.197.385c-.036.124-.107.22-.152.317-.053.096-.009-.083 0-.11.063-.193-.071 0-.062-.028.035-.124.08-.22.125-.303.018-.041.143-.207.071-.165-.044.027-.071.069-.125.082-.152.055-.062-.069.027-.137.018-.014-.063-.028-.072-.028 0 0 .376-.22.206-.179-.018 0-.116-.055-.045-.041.161.027.25-.207.358-.262.035-.014.098-.152.116-.207.018-.041-.018.097-.027.11-.027 0-.027.07-.009.056z" fill="#82B941"/></svg>